<svg width="25" height="23" viewBox="0 0 25 23" fill="none" xmlns="http://www.w3.org/2000/svg">
<path d="M10.3 11.5H14.7M10.3 7.05556H14.7M14.7 21.5V18.1667C14.7 17.5773 14.4682 17.0121 14.0556 16.5953C13.6431 16.1786 13.0835 15.9444 12.5 15.9444C11.9165 15.9444 11.3569 16.1786 10.9444 16.5953C10.5318 17.0121 10.3 17.5773 10.3 18.1667V21.5M5.9 9.27778H3.7C3.11652 9.27778 2.55694 9.5119 2.14436 9.92865C1.73178 10.3454 1.5 10.9106 1.5 11.5V19.2778C1.5 19.8671 1.73178 20.4324 2.14436 20.8491C2.55694 21.2659 3.11652 21.5 3.7 21.5H21.3C21.8835 21.5 22.4431 21.2659 22.8556 20.8491C23.2682 20.4324 23.5 19.8671 23.5 19.2778V8.16667C23.5 7.5773 23.2682 7.01207 22.8556 6.59532C22.4431 6.17857 21.8835 5.94444 21.3 5.94444H19.1M5.9 21.5V3.72222C5.9 3.13285 6.13179 2.56762 6.54437 2.15087C6.95695 1.73413 7.51652 1.5 8.1 1.5H16.9C17.4835 1.5 18.0431 1.73413 18.4556 2.15087C18.8682 2.56762 19.1 3.13285 19.1 3.72222V21.5" stroke="#FE122A" stroke-width="3" stroke-linecap="round" stroke-linejoin="round"/>
</svg>
