<svg width="25" height="23" viewBox="0 0 25 23" fill="none" xmlns="http://www.w3.org/2000/svg">
<path d="M4.79791 21.5H20.201M12.0176 1.78772C12.065 1.70058 12.1348 1.62792 12.2196 1.57731C12.3043 1.5267 12.401 1.5 12.4995 1.5C12.5979 1.5 12.6946 1.5267 12.7793 1.57731C12.8641 1.62792 12.9339 1.70058 12.9813 1.78772L16.2292 8.01686C16.3067 8.1611 16.4148 8.28622 16.5457 8.38325C16.6767 8.48028 16.8274 8.5468 16.9868 8.57804C17.1463 8.60928 17.3106 8.60447 17.468 8.56394C17.6254 8.52342 17.7719 8.44819 17.8971 8.34366L22.6028 4.27093C22.6931 4.1967 22.8044 4.15335 22.9207 4.1471C23.037 4.14086 23.1522 4.17205 23.2498 4.23619C23.3474 4.30033 23.4224 4.3941 23.4639 4.50401C23.5054 4.61392 23.5113 4.7343 23.4808 4.84782L20.3627 16.2368C20.2991 16.4699 20.162 16.6756 19.9722 16.8228C19.7824 16.9701 19.5502 17.0507 19.3109 17.0527H5.68908C5.4496 17.051 5.21721 16.9704 5.02718 16.8232C4.83715 16.6759 4.69987 16.47 4.63617 16.2368L1.51925 4.84894C1.48872 4.73542 1.49463 4.61503 1.53613 4.50512C1.57763 4.39521 1.65258 4.30144 1.75018 4.2373C1.84779 4.17316 1.96303 4.14197 2.0793 4.14821C2.19558 4.15446 2.30689 4.19781 2.39722 4.27204L7.10177 8.34477C7.22697 8.4493 7.37353 8.52453 7.53092 8.56506C7.68832 8.60558 7.85264 8.61039 8.01209 8.57915C8.17154 8.54791 8.32217 8.48139 8.45316 8.38436C8.58415 8.28734 8.69225 8.16221 8.7697 8.01797L12.0176 1.78772Z" stroke="#CD6B03" stroke-width="3" stroke-linecap="round" stroke-linejoin="round"/>
</svg>
