<svg width="32" height="39" viewBox="0 0 32 39" fill="none" xmlns="http://www.w3.org/2000/svg">
<path d="M17.0518 36.6487C20.3067 33.8381 30 24.738 30 16.0002C30 12.2871 28.525 8.7261 25.8995 6.10056C23.274 3.47501 19.713 2 16 2C12.287 2 8.72601 3.47501 6.10051 6.10056C3.475 8.7261 2 12.2871 2 16.0002C2 24.738 11.6932 33.8381 14.9482 36.6487C15.2515 36.8767 15.6206 37 16 37C16.3794 37 16.7485 36.8767 17.0518 36.6487Z" stroke="#3D36FF" stroke-width="4" stroke-linecap="round" stroke-linejoin="round"/>
<path d="M16 21.2502C18.8995 21.2502 21.25 18.8997 21.25 16.0002C21.25 13.1006 18.8995 10.7501 16 10.7501C13.1005 10.7501 10.75 13.1006 10.75 16.0002C10.75 18.8997 13.1005 21.2502 16 21.2502Z" stroke="#3D36FF" stroke-width="4" stroke-linecap="round" stroke-linejoin="round"/>
</svg>
