<svg width="26" height="23" viewBox="0 0 26 23" fill="none" xmlns="http://www.w3.org/2000/svg">
<path d="M19.9 21.5C19.9 19.1425 18.9307 16.8816 17.2054 15.2146C15.48 13.5476 13.14 12.6111 10.7 12.6111M10.7 12.6111C8.26001 12.6111 5.91995 13.5476 4.19462 15.2146C2.46928 16.8816 1.5 19.1425 1.5 21.5M10.7 12.6111C13.8756 12.6111 16.45 10.1238 16.45 7.05556C16.45 3.98731 13.8756 1.5 10.7 1.5C7.52436 1.5 4.95 3.98731 4.95 7.05556C4.95 10.1238 7.52436 12.6111 10.7 12.6111ZM24.5 20.3889C24.5 16.6444 22.2 13.1667 19.9 11.5C20.656 10.952 21.2606 10.2323 21.6602 9.40474C22.0597 8.57717 22.242 7.66719 22.1908 6.75533C22.1397 5.84348 21.8566 4.95787 21.3668 4.17689C20.877 3.3959 20.1954 2.74362 19.3825 2.27778" stroke="#6131E2" stroke-width="3" stroke-linecap="round" stroke-linejoin="round"/>
</svg>
