<svg width="512" height="512" viewBox="0 0 512 512" fill="none" xmlns="http://www.w3.org/2000/svg">
<rect width="512" height="512" rx="256" fill="black"/>
<path d="M279.214 347.002H232.493C228.511 347.002 225.283 350.223 225.283 354.197V400.808C225.283 404.782 228.511 408.003 232.493 408.003H279.214C283.197 408.003 286.425 404.782 286.425 400.808V354.197C286.425 350.223 283.197 347.002 279.214 347.002Z" fill="#B0F90A"/>
<path d="M156.932 225.007H110.211C106.229 225.007 103 228.228 103 232.201V278.814C103 282.787 106.229 286.008 110.211 286.008H156.932C160.914 286.008 164.143 282.787 164.143 278.814V232.201C164.143 228.228 160.914 225.007 156.932 225.007Z" fill="#B0F90A"/>
<path d="M340.366 163.998H293.646C289.664 163.998 286.434 167.219 286.434 171.192V217.804C286.434 221.778 289.664 224.999 293.646 224.999H340.366C344.349 224.999 347.578 221.778 347.578 217.804V171.192C347.578 167.219 344.349 163.998 340.366 163.998Z" fill="#B0F90A"/>
<path d="M279.211 103H232.49C228.501 103 225.28 106.215 225.28 110.195V114.672C225.28 141.92 203.108 163.963 175.835 163.963H171.386C167.397 163.963 164.175 167.177 164.175 171.157V217.769C164.175 221.75 167.397 224.964 171.386 224.964H218.106C222.095 224.964 225.318 221.75 225.318 217.769V213.292C225.318 186.044 247.489 164.001 274.761 164.001H279.211C283.2 164.001 286.422 160.786 286.422 156.806V110.195C286.422 106.215 283.2 103 279.211 103Z" fill="#B0F90A"/>
<path d="M401.466 225.007H354.745C350.756 225.007 347.534 228.222 347.534 232.201V236.679C347.534 263.927 325.363 285.969 298.09 285.969H293.603C289.613 285.969 286.391 289.184 286.391 293.164V339.777C286.391 343.756 289.613 346.97 293.603 346.97H340.322C344.312 346.97 347.534 343.756 347.534 339.777V335.298C347.534 308.051 369.705 286.008 396.977 286.008H401.428C405.417 286.008 408.638 282.793 408.638 278.814V232.201C408.638 228.222 405.417 225.007 401.428 225.007H401.466Z" fill="#B0F90A"/>
<path d="M279.211 225.007H232.49C228.501 225.007 225.28 228.222 225.28 232.201V236.679C225.28 263.927 203.108 285.969 175.835 285.969H171.386C167.397 285.969 164.175 289.184 164.175 293.164V339.777C164.175 343.756 167.397 346.97 171.386 346.97H218.106C222.095 346.97 225.318 343.756 225.318 339.777V335.298C225.318 308.051 247.489 286.008 274.761 286.008H279.211C283.2 286.008 286.422 282.793 286.422 278.814V232.201C286.422 228.222 283.2 225.007 279.211 225.007Z" fill="#B0F90A"/>
</svg>
