<svg width="442" height="70" viewBox="0 0 442 70" fill="none" xmlns="http://www.w3.org/2000/svg">
<path d="M165.549 7.97725C165.549 6.50083 165.751 5.25207 166.16 4.23094C166.568 3.21305 167.154 2.38703 167.918 1.75939C168.683 1.13175 169.624 0.679717 170.735 0.409801C171.849 0.136631 173.101 4.57764e-05 174.5 4.57764e-05C177.068 4.57764e-05 179.104 0.419557 180.614 1.25208C182.12 2.0846 182.977 3.53825 183.186 5.60654H178.953C178.79 4.63093 178.329 3.99029 177.571 3.67809C176.816 3.36914 175.79 3.21305 174.5 3.21305C173.816 3.21305 173.186 3.26833 172.604 3.3789C172.026 3.48947 171.529 3.68459 171.114 3.96752C170.696 4.25045 170.375 4.64069 170.143 5.1415C169.915 5.64557 169.8 6.28623 169.8 7.06993V8.84233C169.8 10.3805 170.229 11.4081 171.091 11.922C171.95 12.4391 173.088 12.696 174.5 12.696C175.748 12.696 176.748 12.5431 177.502 12.2407C178.261 11.9383 178.751 11.3366 178.973 10.4358H183.205C182.966 12.4163 182.097 13.8244 180.588 14.6569C179.081 15.4927 177.048 15.909 174.5 15.909C173.101 15.909 171.849 15.7757 170.735 15.509C169.62 15.2423 168.683 14.8066 167.918 14.2017C167.154 13.5968 166.568 12.7805 166.16 11.7529C165.751 10.7252 165.549 9.46671 165.549 7.97403V7.97725Z" fill="white"/>
<path d="M185.233 9.17367V0.308655H189.419V9.01757C189.419 10.4973 189.772 11.4761 190.478 11.9672C191.184 12.455 192.243 12.6989 193.651 12.6989C195.059 12.6989 196.115 12.455 196.814 11.9672C197.514 11.4794 197.86 10.4973 197.86 9.01757V0.308655H201.648V9.17367C201.648 11.5542 200.977 13.2712 199.631 14.3249C198.288 15.3818 196.295 15.9087 193.651 15.9087C191.007 15.9087 188.834 15.3818 187.393 14.3249C185.952 13.2712 185.233 11.5542 185.233 9.17367Z" fill="white"/>
<path d="M204.63 0.312103H215.12C217.021 0.312103 218.427 0.777142 219.342 1.70722C220.253 2.64055 220.711 3.92511 220.711 5.56413C220.711 7.20314 220.253 8.55272 219.342 9.48607C218.427 10.4162 217.021 10.8812 215.12 10.8812H208.819V15.5999H204.63V0.312103ZM216.456 5.89909V5.27795C216.456 4.77389 216.302 4.36088 215.999 4.03567C215.695 3.71047 215.201 3.54787 214.518 3.54787H208.819V7.64867H214.518C215.201 7.64867 215.695 7.48935 215.999 7.17061C216.302 6.85193 216.456 6.42916 216.456 5.89581V5.89909Z" fill="white"/>
<path d="M222.201 7.8439C222.201 6.36748 222.414 5.12522 222.836 4.12035C223.257 3.11547 223.875 2.30572 224.685 1.69434C225.492 1.07971 226.495 0.647184 227.691 0.387021C228.884 0.130111 230.257 3.05176e-05 231.799 3.05176e-05C233.342 3.05176e-05 234.691 0.130111 235.887 0.387021C237.08 0.647184 238.083 1.08295 238.894 1.69434C239.701 2.30897 240.318 3.11873 240.743 4.12035C241.165 5.12522 241.377 6.36426 241.377 7.8439C241.377 9.32359 241.165 10.6439 240.743 11.6781C240.318 12.7122 239.704 13.5414 238.894 14.1691C238.083 14.8 237.08 15.2455 235.887 15.5122C234.691 15.7789 233.329 15.9122 231.799 15.9122C230.27 15.9122 228.884 15.7789 227.691 15.5122C226.495 15.2455 225.492 14.8 224.685 14.1691C223.875 13.5414 223.26 12.7122 222.836 11.6781C222.414 10.6439 222.201 9.36589 222.201 7.8439ZM237.145 8.73173V7.11549C237.145 5.66833 236.694 4.65694 235.799 4.07807C234.9 3.50247 233.567 3.21303 231.803 3.21303C230.038 3.21303 228.701 3.50247 227.793 4.07807C226.888 4.65368 226.436 5.66833 226.436 7.11549V8.73173C226.436 10.2699 226.888 11.3138 227.793 11.8667C228.698 12.4228 230.034 12.6992 231.803 12.6992C233.57 12.6992 234.9 12.4228 235.799 11.8667C236.698 11.3138 237.145 10.2699 237.145 8.73173Z" fill="white"/>
<path d="M243.872 0.312103H248.061V12.2145H257.414V15.6064H243.872V0.312103Z" fill="white"/>
<path d="M264.359 0.312103H270.127L276.741 15.6031H272.376L270.927 12.2113H263.088L261.64 15.6031H257.722L264.359 0.312103ZM264.382 9.19991H269.637L267.009 3.04055L264.382 9.19991Z" fill="white"/>
<path d="M51.2091 69.139V31.079H57.9597V62.8133H88.0466V69.139H51.2091Z" fill="white"/>
<path d="M91.8701 53.2166V31.1951H100.074V52.9467C100.074 56.7609 101.027 59.3519 102.935 60.7192C104.842 62.0864 107.612 62.7698 111.246 62.7698C114.881 62.7698 117.651 62.0864 119.558 60.7192C121.466 59.3519 122.419 56.7609 122.419 52.9467V31.1951H129.814V53.2166C129.814 58.6861 128.284 62.7161 125.226 65.3066C122.168 67.8615 117.507 69.139 111.246 69.139C104.842 69.139 100.002 67.8615 96.7274 65.3066C93.4892 62.7161 91.8701 58.6861 91.8701 53.2166Z" fill="white"/>
<path d="M135.356 49.8702C135.356 42.7817 137.191 37.78 140.861 34.8654C144.568 31.9508 149.749 30.4935 156.406 30.4935C162.415 30.4935 167.129 31.465 170.547 33.4081C173.965 35.3152 176.017 38.5177 176.7 43.0155H168.442C167.902 40.6406 166.643 39.0214 164.664 38.1579C162.685 37.2583 159.932 36.8085 156.406 36.8085C152.268 36.8085 149.101 37.6181 146.906 39.2373C144.711 40.8565 143.614 43.7172 143.614 47.8192V51.8133C143.614 55.8794 144.694 58.7398 146.852 60.3951C149.047 62.0142 152.214 62.824 156.352 62.824C160.598 62.824 163.746 62.1763 165.797 60.8807C167.848 59.5496 169 57.4448 169.252 54.566H156.892V49.0067H177.186V52.461C177.186 58.1824 175.351 62.392 171.681 65.0909C168.01 67.7898 162.918 69.139 156.406 69.139C153.059 69.139 150.073 68.8154 147.446 68.1677C144.855 67.4837 142.661 66.3864 140.861 64.8752C139.062 63.3639 137.695 61.3845 136.759 58.938C135.824 56.4551 135.356 53.4325 135.356 49.8702Z" fill="white"/>
<path d="M182.795 53.2166V31.1951H190.999V52.9467C190.999 56.7609 191.952 59.3519 193.859 60.7192C195.766 62.0864 198.537 62.7698 202.171 62.7698C205.805 62.7698 208.576 62.0864 210.483 60.7192C212.39 59.3519 213.344 56.7609 213.344 52.9467V31.1951H220.738V53.2166C220.738 58.6861 219.209 62.7161 216.15 65.3066C213.092 67.8615 208.432 69.139 202.171 69.139C195.766 69.139 190.927 67.8615 187.652 65.3066C184.414 62.7161 182.795 58.6861 182.795 53.2166Z" fill="white"/>
<path d="M256.559 46.2818V52.6074H233.595V62.8133H263.682V69.139H226.845V31.079H263.682V37.4578H233.595V46.2818H256.559Z" fill="white"/>
<path d="M270.33 69.139V31.079H277.08V62.8133H307.167V69.139H270.33Z" fill="white"/>
<path d="M0 69.0374L22.463 30.9964L45.0857 69.0374H37.2609L30.5539 57.6145L14.4253 57.6676L7.71833 69.0374H0ZM26.9343 51.5577L22.463 44.0663L18.0449 51.5577H26.9343Z" fill="white"/>
<path d="M313.816 30.9509H337.836C341.083 30.9509 343.961 31.2645 346.47 31.8917C349.016 32.4821 351.156 33.5152 352.89 34.9911C354.624 36.4669 355.934 38.4409 356.819 40.913C357.742 43.3482 358.203 46.3922 358.203 50.0449C358.203 53.7346 357.742 56.8157 356.819 59.2876C355.934 61.7228 354.624 63.6785 352.89 65.1542C351.156 66.5931 349.016 67.626 346.47 68.2535C343.961 68.8436 341.083 69.139 337.836 69.139H313.816V30.9509ZM336.895 59.0662C339.773 59.0662 341.95 58.6048 343.426 57.6826C344.902 56.7231 345.64 54.7493 345.64 51.7606V47.9972C345.64 45.3406 344.902 43.5142 343.426 42.518C341.95 41.5218 339.773 41.0237 336.895 41.0237H326.214V59.0662H336.895Z" fill="#B0F90A"/>
<path d="M412.722 54.3619L394.016 30.9509H408.073L419.364 45.2299L429.492 30.9509H442L425.12 54.3619V69.139H412.722V54.3619Z" fill="#B0F90A"/>
<path d="M358.572 69.0374L381.74 30.9964L405.067 69.0374H391.606L388.422 63.2502L375.111 63.3033L371.926 69.0374H358.572ZM384.802 54.3755L381.74 48.9976L378.73 54.3755H384.802Z" fill="#B0F90A"/>
</svg>
