<svg width="215" height="40" viewBox="0 0 215 40" fill="none" xmlns="http://www.w3.org/2000/svg">
<path d="M101.928 18.4266C100.72 14.477 96.9068 11.6653 92.4956 11.9416C87.9101 12.2281 84.186 15.9239 83.8689 20.4994C83.4964 25.894 87.7693 30.3844 93.0918 30.3844C96.8113 30.3844 100.018 28.1883 101.485 25.0275H98.6308C98.4725 25.0275 98.3287 25.1028 98.2307 25.226C97.0355 26.7487 95.1807 27.7257 93.0918 27.7257C89.9337 27.7257 87.2989 25.4847 86.6947 22.5097H100.546C101.568 22.5097 102.381 21.6451 102.303 20.6275C102.25 19.9268 102.141 19.1327 101.925 18.4266H101.928ZM86.7198 19.7962C87.3667 16.8789 89.9739 14.6956 93.0892 14.6956C96.2051 14.6956 98.8123 16.8789 99.4587 19.7962H86.7173H86.7198Z" fill="#131313"/>
<path d="M120.361 14.3661C118.559 12.5413 116.02 11.4694 113.236 11.6507C108.666 11.9492 104.952 15.7011 104.638 20.3431C104.266 25.8225 108.533 30.3835 113.846 30.3835C116.15 30.3835 118.253 29.5257 119.871 28.1067L121.034 29.7964C121.175 30.0005 121.406 30.1232 121.653 30.1232H123.077V4.61426H120.361V14.3636V14.3661ZM113.846 27.683C110.248 27.683 107.331 24.7203 107.331 21.0653C107.331 17.4107 110.248 14.448 113.846 14.448C117.444 14.448 120.361 17.4107 120.361 21.0653C120.361 24.7203 117.444 27.683 113.846 27.683Z" fill="#131313"/>
<path d="M151.923 4.61426H147.307V30.3835H151.923V4.61426Z" fill="#131313"/>
<path d="M83.7893 12.3066H76.4268C75.2141 12.3066 74.2304 13.3386 74.2304 14.6108V30.3836H76.8684V15.0742H83.7893C83.821 15.0742 83.8458 15.0488 83.8458 15.0154V12.3679C83.8458 12.3345 83.821 12.3091 83.7893 12.3091V12.3066Z" fill="#131313"/>
<path d="M62.3135 14.638C64.845 14.638 67.0376 16.08 68.1189 18.188C68.2042 18.3567 68.373 18.4672 68.5638 18.4672H71.1537C69.9519 14.5123 66.1653 11.6806 61.7575 11.9392C57.0178 12.2185 53.2161 16.1431 53.0806 20.8843C52.9319 26.1052 57.1237 30.3844 62.3135 30.3844C66.4596 30.3844 69.967 27.6558 71.1361 23.897H68.5337C68.3454 23.897 68.1791 24.005 68.0913 24.1708C66.9698 26.3116 64.6919 27.7536 62.0845 27.6656C58.7629 27.5526 56.0099 24.8867 55.8035 21.5704C55.5674 17.7836 58.5721 14.638 62.311 14.638H62.3135Z" fill="#131313"/>
<path d="M167.304 11.9229V21.6918C167.304 23.8021 165.714 25.6199 163.648 25.7177C161.441 25.8225 159.619 24.0306 159.619 21.8021V11.9229H155V21.8021C155.03 26.5456 158.807 30.3844 163.462 30.3844C168.116 30.3844 171.893 26.5486 171.923 21.8021V11.9229H167.304Z" fill="#131313"/>
<path d="M140.755 12.4984L139.969 13.6239C138.228 12.2725 136.318 11.9229 135 11.9229C129.902 11.9229 125.769 16.056 125.769 21.1539C125.769 26.2517 129.902 30.3844 135 30.3844C136.999 30.3844 138.708 29.6558 139.972 28.6809L140.761 29.8094C140.902 30.0103 141.132 30.1306 141.379 30.1306H144.231V12.1766H141.374C141.127 12.1766 140.897 12.2974 140.755 12.4984ZM135.125 25.9451C132.51 25.9451 130.39 23.8245 130.39 21.2091C130.39 18.5937 132.51 16.4731 135.125 16.4731C137.741 16.4731 139.861 18.5937 139.861 21.2091C139.861 23.827 137.741 25.9476 135.125 25.9476V25.9451Z" fill="#131313"/>
<path d="M210.756 12.4984L209.969 13.6239C208.228 12.2725 206.319 11.9229 205 11.9229C199.902 11.9229 195.769 16.056 195.769 21.1539C195.769 26.2517 199.902 30.3844 205 30.3844C207 30.3844 208.708 29.6558 209.972 28.6809L210.761 29.8094C210.902 30.0103 211.133 30.1306 211.379 30.1306H214.231V12.1766H211.374C211.128 12.1766 210.897 12.2974 210.756 12.4984ZM205.126 25.9451C202.51 25.9451 200.39 23.8245 200.39 21.2091C200.39 18.5937 202.51 16.4731 205.126 16.4731C207.741 16.4731 209.861 18.5937 209.861 21.2091C209.861 23.827 207.741 25.9476 205.126 25.9476V25.9451Z" fill="#131313"/>
<path d="M189.619 12.4103L188.573 13.478C187.478 12.667 185.849 11.9229 183.849 11.9229C178.75 11.9229 174.615 16.1444 174.615 21.3514C174.615 26.5579 178.75 30.7795 183.849 30.7795C185.877 30.7795 187.518 29.9944 188.46 29.3092V30.772C188.463 33.2946 186.46 35.3422 183.987 35.3422C181.923 35.3422 180.192 33.9153 179.672 31.9781C179.611 31.7548 179.416 31.6005 179.189 31.6005H174.935C175.372 36.312 179.255 39.9998 183.984 39.9998C188.988 39.9998 193.047 35.8736 193.077 30.769V12.1845H190.149C189.948 12.1845 189.757 12.267 189.616 12.4103H189.619ZM183.974 26.2477C181.358 26.2477 179.237 24.0817 179.237 21.4103C179.237 18.7389 181.358 16.573 183.974 16.573C186.591 16.573 188.711 18.7389 188.711 21.4103C188.711 24.0817 186.591 26.2477 183.974 26.2477Z" fill="#131313"/>
<path d="M43.0253 5.39586L26.9232 8.30063V31.6998L43.0253 34.6046C43.4533 34.6813 43.8462 34.3458 43.8462 33.8997V6.10025C43.8462 5.65459 43.4533 5.31859 43.0253 5.39586Z" fill="#00C1E8"/>
<path d="M26.9231 8.31194V4.68975C26.9231 4.33645 26.6729 4.03441 26.3334 3.9832L0.795378 0.00785706C0.376607 -0.0561577 0 0.279209 0 0.714359V39.2851C0 39.723 0.376607 40.0583 0.795378 39.9915L26.3334 36.0186C26.6729 35.9653 26.9231 35.6654 26.9231 35.3122V31.69L14.195 29.371C13.8629 29.3098 13.6226 29.0129 13.6226 28.6671V11.3348C13.6226 10.9866 13.8629 10.6897 14.195 10.6309L26.9231 8.31194Z" fill="#00C1E8"/>
</svg>
