<svg width="179" height="33" viewBox="0 0 179 33" fill="none" xmlns="http://www.w3.org/2000/svg">
<path d="M18.7421 25.9082H13.7736C13.3498 25.9082 13.0063 26.2504 13.0063 26.6725V31.6214C13.0063 32.0435 13.3498 32.3857 13.7736 32.3857H18.7421C19.1659 32.3857 19.5094 32.0435 19.5094 31.6214V26.6725C19.5094 26.2504 19.1659 25.9082 18.7421 25.9082Z" fill="#B0F90A"/>
<path d="M5.7358 12.9551H0.767336C0.343548 12.9551 0 13.2973 0 13.7194V18.6682C0 19.0904 0.343548 19.4325 0.767336 19.4325H5.7358C6.15959 19.4325 6.50313 19.0904 6.50313 18.6682V13.7194C6.50313 13.2973 6.15959 12.9551 5.7358 12.9551Z" fill="#B0F90A"/>
<path d="M25.2435 6.47754H20.2751C19.8513 6.47754 19.5078 6.81973 19.5078 7.24185V12.1907C19.5078 12.6128 19.8513 12.955 20.2751 12.955H25.2435C25.6673 12.955 26.0109 12.6128 26.0109 12.1907V7.24185C26.0109 6.81973 25.6673 6.47754 25.2435 6.47754Z" fill="#B0F90A"/>
<path d="M18.7404 0H13.7719C13.3473 0 13.0046 0.343023 13.0046 0.764308V1.24054C13.0029 4.13293 10.6474 6.47581 7.74355 6.47581H7.26877C6.84414 6.47581 6.50143 6.81883 6.50143 7.24012V12.189C6.50143 12.6119 6.84582 12.9533 7.26877 12.9533H12.2372C12.6619 12.9533 13.0046 12.6103 13.0046 12.189V11.7127C13.0062 8.82035 15.3617 6.47747 18.2656 6.47747H18.7404C19.165 6.47747 19.5077 6.13445 19.5077 5.71316V0.764308C19.5077 0.343023 19.165 0 18.7404 0Z" fill="#B0F90A"/>
<path d="M31.7467 12.9551H26.7782C26.3536 12.9551 26.0109 13.2981 26.0109 13.7194V14.1956C26.0092 17.088 23.6554 19.4309 20.7515 19.4309H20.2767C19.8521 19.4309 19.5094 19.7739 19.5094 20.1952V25.144C19.5094 25.567 19.8538 25.9084 20.2767 25.9084H25.2452C25.6698 25.9084 26.0125 25.5653 26.0125 25.144V24.6678C26.0142 21.7754 28.3697 19.4325 31.2736 19.4325H31.7483C32.173 19.4325 32.5157 19.0895 32.5157 18.6682V13.7194C32.5157 13.2964 32.1713 12.9551 31.7483 12.9551H31.7467Z" fill="#B0F90A"/>
<path d="M18.7404 12.9551H13.7719C13.3473 12.9551 13.0046 13.2981 13.0046 13.7194V14.1973C13.0029 17.0897 10.6474 19.4325 7.74355 19.4325H7.26877C6.84414 19.4325 6.50143 19.7756 6.50143 20.1969V25.1457C6.50143 25.5687 6.84582 25.91 7.26877 25.91H12.2372C12.6619 25.91 13.0046 25.567 13.0046 25.1457V24.6695C13.0062 21.7771 15.3601 19.4342 18.2639 19.4342H18.7387C19.1633 19.4342 19.506 19.0912 19.506 18.6699V13.7211C19.506 13.2981 19.1616 12.9567 18.7387 12.9567L18.7404 12.9551Z" fill="#B0F90A"/>
<path d="M40.1807 16.22C40.1807 14.375 40.4348 12.8147 40.9447 11.5392C41.4545 10.2654 42.1851 9.23632 43.1397 8.45203C44.0942 7.66774 45.2695 7.10492 46.6587 6.76356C48.048 6.42053 49.6144 6.24902 51.358 6.24902C54.5645 6.24902 57.1072 6.77188 58.9896 7.81594C60.8703 8.85666 61.9403 10.6717 62.1994 13.256H56.9166C56.7127 12.0371 56.1376 11.2345 55.193 10.8465C54.2502 10.4585 52.9696 10.2654 51.358 10.2654C50.5054 10.2654 49.718 10.3353 48.9942 10.4735C48.272 10.6134 47.6501 10.8565 47.1318 11.2079C46.6119 11.5592 46.209 12.0488 45.9215 12.6749C45.6339 13.3043 45.4918 14.1052 45.4918 15.0844V17.299C45.4918 19.219 46.0285 20.5045 47.1051 21.1489C48.18 21.795 49.596 22.118 51.358 22.118C52.9144 22.118 54.1666 21.9282 55.1095 21.5502C56.0557 21.1739 56.6692 20.4212 56.945 19.2939H62.2278C61.9319 21.7683 60.8436 23.5267 58.9612 24.5691C57.0805 25.6132 54.5444 26.1327 51.3597 26.1327C49.6161 26.1327 48.0496 25.9662 46.6604 25.6348C45.2712 25.3018 44.0976 24.7589 43.1413 24.0013C42.1868 23.2436 41.4562 22.2262 40.9463 20.9407C40.4348 19.6586 40.1823 18.0833 40.1823 16.22H40.1807Z" fill="white"/>
<path d="M64.7572 17.7153V6.63867H69.9831V17.5205C69.9831 19.3688 70.4245 20.5944 71.3038 21.2055C72.1832 21.8133 73.5055 22.118 75.2659 22.118C77.0262 22.118 78.3436 21.8133 79.2146 21.2055C80.0856 20.5944 80.5202 19.3688 80.5202 17.5205V6.63867H85.2463V17.7153C85.2463 20.691 84.4087 22.8357 82.7303 24.1545C81.0535 25.475 78.5643 26.136 75.2659 26.136C71.9675 26.136 69.2526 25.475 67.4538 24.1545C65.655 22.8357 64.7572 20.691 64.7572 17.7153Z" fill="white"/>
<path d="M88.9742 6.63867H102.071C104.445 6.63867 106.2 7.21981 107.34 8.38376C108.479 9.54937 109.049 11.1529 109.049 13.2044C109.049 15.2559 108.479 16.941 107.34 18.1066C106.2 19.2689 104.445 19.8517 102.071 19.8517H94.2034V25.7497H88.9742V6.63867ZM103.737 13.619V12.8431C103.737 12.2136 103.547 11.6974 103.167 11.2928C102.788 10.8882 102.171 10.6817 101.318 10.6817H94.2034V15.807H101.318C102.171 15.807 102.786 15.6089 103.167 15.2092C103.547 14.8129 103.737 14.2834 103.737 13.6174V13.619Z" fill="white"/>
<path d="M110.909 16.0538C110.909 14.2088 111.174 12.6568 111.702 11.403C112.228 10.1475 112.999 9.13503 114.009 8.36906C115.019 7.60309 116.269 7.06024 117.762 6.73554C119.253 6.4125 120.963 6.25098 122.891 6.25098C124.818 6.25098 126.5 6.4125 127.993 6.73554C129.484 7.06024 130.735 7.60309 131.746 8.36906C132.756 9.13503 133.525 10.1475 134.053 11.403C134.58 12.6585 134.846 14.2088 134.846 16.0538C134.846 17.8988 134.581 19.5539 134.053 20.8444C133.523 22.1383 132.754 23.174 131.746 23.9583C130.735 24.7442 129.484 25.3021 127.993 25.6351C126.5 25.9665 124.8 26.133 122.891 26.133C120.982 26.133 119.253 25.9665 117.762 25.6351C116.269 25.3021 115.017 24.7442 114.009 23.9583C112.997 23.174 112.228 22.1366 111.702 20.8444C111.175 19.5523 110.909 17.9554 110.909 16.0538ZM129.565 17.1628V15.1413C129.565 13.3312 129.003 12.0674 127.883 11.3464C126.761 10.627 125.098 10.2673 122.891 10.2673C120.684 10.2673 119.017 10.6287 117.886 11.3464C116.754 12.0674 116.19 13.3312 116.19 15.1413V17.1628C116.19 19.0827 116.754 20.3882 117.886 21.0792C119.017 21.7736 120.684 22.1183 122.891 22.1183C125.098 22.1183 126.759 21.7736 127.883 21.0792C129.003 20.3882 129.565 19.0827 129.565 17.1628Z" fill="white"/>
<path d="M137.96 6.63867H143.189V21.5102H154.867V25.7464H137.96V6.63867Z" fill="white"/>
<path d="M163.541 6.63867H170.742L179 25.748H173.55L171.743 21.5119H161.956L160.149 25.748H155.258L163.543 6.63867H163.541ZM163.568 17.7453H170.13L166.85 10.0473L163.57 17.7453H163.568Z" fill="white"/>
</svg>
