<svg width="286" height="52" viewBox="0 0 286 52" fill="none" xmlns="http://www.w3.org/2000/svg">
<path d="M29.9454 41.3955H22.007C21.3299 41.3955 20.7809 41.9423 20.7809 42.6167V50.5238C20.7809 51.1983 21.3299 51.745 22.007 51.745H29.9454C30.6225 51.745 31.1714 51.1983 31.1714 50.5238V42.6167C31.1714 41.9423 30.6225 41.3955 29.9454 41.3955Z" fill="#B0F90A"/>
<path d="M9.16446 20.6982H1.22602C0.54891 20.6982 0 21.245 0 21.9194V29.8265C0 30.501 0.54891 31.0477 1.22602 31.0477H9.16446C9.84158 31.0477 10.3905 30.501 10.3905 29.8265V21.9194C10.3905 21.245 9.84158 20.6982 9.16446 20.6982Z" fill="#B0F90A"/>
<path d="M40.3333 10.3496H32.3948C31.7177 10.3496 31.1688 10.8964 31.1688 11.5708V19.4779C31.1688 20.1524 31.7177 20.6991 32.3948 20.6991H40.3333C41.0104 20.6991 41.5593 20.1524 41.5593 19.4779V11.5708C41.5593 10.8964 41.0104 10.3496 40.3333 10.3496Z" fill="#B0F90A"/>
<path d="M29.9426 0H22.0042C21.3258 0 20.7782 0.54807 20.7782 1.22119V1.9821C20.7755 6.60345 17.012 10.3468 12.3723 10.3468H11.6137C10.9353 10.3468 10.3877 10.8949 10.3877 11.568V19.4751C10.3877 20.1509 10.9379 20.6963 11.6137 20.6963H19.5522C20.2306 20.6963 20.7782 20.1482 20.7782 19.4751V18.7142C20.7809 14.0929 24.5444 10.3495 29.1841 10.3495H29.9426C30.6211 10.3495 31.1687 9.80142 31.1687 9.1283V1.22119C31.1687 0.54807 30.6211 0 29.9426 0Z" fill="#B0F90A"/>
<path d="M50.7237 20.6982H42.7853C42.1068 20.6982 41.5593 21.2463 41.5593 21.9194V22.6803C41.5566 27.3017 37.7957 31.0451 33.1561 31.0451H32.3975C31.719 31.0451 31.1714 31.5931 31.1714 32.2663V40.1734C31.1714 40.8491 31.7217 41.3946 32.3975 41.3946H40.3359C41.0144 41.3946 41.5619 40.8465 41.5619 40.1734V39.4125C41.5646 34.7911 45.3282 31.0477 49.9678 31.0477H50.7264C51.4049 31.0477 51.9524 30.4997 51.9524 29.8265V21.9194C51.9524 21.2437 51.4022 20.6982 50.7264 20.6982H50.7237Z" fill="#B0F90A"/>
<path d="M29.9426 20.6982H22.0042C21.3258 20.6982 20.7782 21.2463 20.7782 21.9194V22.683C20.7755 27.3044 17.012 31.0477 12.3723 31.0477H11.6137C10.9353 31.0477 10.3877 31.5958 10.3877 32.2689V40.176C10.3877 40.8518 10.9379 41.3972 11.6137 41.3972H19.5522C20.2306 41.3972 20.7782 40.8491 20.7782 40.176V39.4151C20.7809 34.7938 24.5417 31.0504 29.1814 31.0504H29.94C30.6184 31.0504 31.166 30.5023 31.166 29.8292V21.9221C31.166 21.2463 30.6158 20.7009 29.94 20.7009L29.9426 20.6982Z" fill="#B0F90A"/>
<path d="M64.1993 25.9157C64.1993 22.9678 64.6053 20.4749 65.42 18.4369C66.2346 16.4016 67.4019 14.7574 68.9271 13.5043C70.4523 12.2512 72.33 11.3519 74.5497 10.8065C76.7694 10.2584 79.2722 9.98438 82.0581 9.98438C87.1812 9.98438 91.2439 10.8198 94.2516 12.4879C97.2565 14.1508 98.966 17.0508 99.38 21.1799H90.9394C90.6136 19.2324 89.6947 17.95 88.1855 17.3301C86.6791 16.7102 84.633 16.4016 82.0581 16.4016C80.6958 16.4016 79.4378 16.5133 78.2812 16.7342C77.1273 16.9576 76.1336 17.3461 75.3056 17.9075C74.4749 18.4688 73.8312 19.251 73.3718 20.2514C72.9123 21.2571 72.6853 22.5368 72.6853 24.1012V27.6397C72.6853 30.7073 73.5427 32.7612 75.2629 33.7909C76.9804 34.8231 79.2428 35.3393 82.0581 35.3393C84.5449 35.3393 86.5455 35.036 88.052 34.432C89.5638 33.8308 90.5441 32.6282 90.9848 30.827H99.4254C98.9527 34.7806 97.2138 37.5901 94.2062 39.2556C91.2012 40.9238 87.1492 41.7538 82.0608 41.7538C79.2748 41.7538 76.772 41.4878 74.5524 40.9583C72.3327 40.4262 70.4576 39.5589 68.9298 38.3484C67.4046 37.1378 66.2373 35.5122 65.4226 33.4583C64.6053 31.4097 64.2019 28.8928 64.2019 25.9157H64.1993Z" fill="black"/>
<path d="M103.467 28.3053V10.6074H111.817V27.994C111.817 30.9472 112.522 32.9054 113.927 33.8818C115.332 34.8529 117.444 35.3398 120.257 35.3398C123.07 35.3398 125.175 34.8529 126.566 33.8818C127.958 32.9054 128.652 30.9472 128.652 27.994V10.6074H136.203V28.3053C136.203 33.0597 134.865 36.4865 132.183 38.5936C129.504 40.7034 125.527 41.7596 120.257 41.7596C114.987 41.7596 110.649 40.7034 107.775 38.5936C104.901 36.4865 103.467 33.0597 103.467 28.3053Z" fill="black"/>
<path d="M142.16 10.6074H163.085C166.878 10.6074 169.683 11.5359 171.504 13.3957C173.323 15.258 174.234 17.8201 174.234 21.0979C174.234 24.3757 173.323 27.0682 171.504 28.9305C169.683 30.7876 166.878 31.7188 163.085 31.7188H150.515V41.1424H142.16V10.6074ZM165.748 21.7604V20.5206C165.748 19.5149 165.444 18.6901 164.837 18.0436C164.231 17.3971 163.245 17.0672 161.883 17.0672H150.515V25.2563H161.883C163.245 25.2563 164.228 24.9397 164.837 24.3012C165.444 23.668 165.748 22.8219 165.748 21.7577V21.7604Z" fill="black"/>
<path d="M177.207 25.6499C177.207 22.702 177.629 20.2224 178.473 18.219C179.315 16.213 180.546 14.5954 182.159 13.3715C183.773 12.1477 185.771 11.2803 188.156 10.7615C190.538 10.2454 193.271 9.9873 196.351 9.9873C199.431 9.9873 202.118 10.2454 204.503 10.7615C206.885 11.2803 208.883 12.1477 210.499 13.3715C212.113 14.5954 213.341 16.213 214.186 18.219C215.027 20.225 215.452 22.702 215.452 25.6499C215.452 28.5978 215.03 31.2423 214.186 33.3042C213.339 35.3715 212.11 37.0263 210.499 38.2794C208.883 39.5352 206.885 40.4265 204.503 40.9586C202.118 41.4881 199.401 41.7541 196.351 41.7541C193.3 41.7541 190.538 41.4881 188.156 40.9586C185.771 40.4265 183.77 39.5352 182.159 38.2794C180.543 37.0263 179.315 35.3688 178.473 33.3042C177.632 31.2397 177.207 28.6882 177.207 25.6499ZM207.014 27.4218V24.1919C207.014 21.2999 206.116 19.2806 204.327 18.1285C202.534 16.9792 199.877 16.4045 196.351 16.4045C192.825 16.4045 190.162 16.9819 188.354 18.1285C186.545 19.2806 185.645 21.2999 185.645 24.1919V27.4218C185.645 30.4894 186.545 32.5753 188.354 33.6794C190.162 34.7888 192.825 35.3396 196.351 35.3396C199.877 35.3396 202.532 34.7888 204.327 33.6794C206.116 32.5753 207.014 30.4894 207.014 27.4218Z" fill="black"/>
<path d="M220.428 10.6074H228.783V34.3687H247.44V41.1371H220.428V10.6074Z" fill="black"/>
<path d="M261.301 10.6074H272.805L286 41.1397H277.292L274.405 34.3713H258.768L255.881 41.1397H248.065L261.303 10.6074H261.301ZM261.343 28.3532H271.827L266.587 16.0535L261.346 28.3532H261.343Z" fill="black"/>
</svg>
