<svg width="159" height="49" viewBox="0 0 159 49" fill="none" xmlns="http://www.w3.org/2000/svg">
<g clip-path="url(#clip0_105_1275)">
<path d="M22.4324 16.1C21.6874 8.39629 28.5358 0.805087 36.5408 0.337927C40.9566 0.0802456 44.8476 1.2657 48.112 4.31206C49.6293 5.72842 49.7924 7.85295 48.5047 9.283C47.2105 10.7208 45.1707 10.788 43.5712 9.44546C37.9683 4.74411 30.6059 7.41019 29.3034 14.6128C29.2653 14.702 29.2034 14.7336 29.1112 14.6949C28.9005 14.5354 28.8422 14.2801 28.7214 14.0653C28.049 12.865 26.9649 11.9265 25.623 12.0258C24.2919 12.124 23.422 13.2672 22.9079 14.4908C22.7883 14.7758 22.7704 15.0782 22.7663 15.3829C22.7633 15.612 22.7924 15.85 22.6514 16.0571C22.6104 16.1035 22.4872 16.1291 22.4324 16.1Z" fill="#CC3941"/>
<path d="M22.4324 16.0299C22.4604 16.0322 22.5633 16.0882 22.5907 16.0923C22.6906 16.1471 22.7305 16.2447 22.771 16.3417C22.8013 16.4143 22.8275 16.4887 22.8543 16.5625C23.4434 18.005 24.9518 19.0911 26.3668 18.8257C28.0436 18.5115 29.0254 17.107 29.0611 15.4115C29.0665 15.1699 29.0082 14.9063 29.2194 14.7081C29.2474 14.676 29.2753 14.6438 29.3039 14.6123C29.408 20.0248 32.2244 23.3158 37.3602 23.8091C39.6915 24.0329 41.7926 23.2009 43.5295 21.6191C45.1462 20.1468 47.1265 20.1016 48.5677 21.5911C49.8911 22.9587 49.7649 25.0362 48.2708 26.4978C43.949 30.7249 37.3673 31.8746 31.593 29.4109C26.4239 27.2054 22.3711 21.318 22.4324 16.0293V16.0299Z" fill="#D78936"/>
<path d="M2.88475 0.334845C3.43159 0.30985 3.97843 0.262837 4.52528 0.262241C9.28738 0.25629 14.0495 0.257481 18.8116 0.259266C20.9871 0.259861 22.5746 1.72145 22.577 3.71863C22.5794 5.71283 20.9871 7.1774 18.8146 7.18156C14.8379 7.1887 10.8607 7.19644 6.88401 7.20418C6.62755 7.01374 6.67872 6.72928 6.67515 6.4716C6.66206 5.51407 6.69241 4.55595 6.66266 3.59842C6.62339 2.33441 6.00157 1.4233 4.90432 0.820453C4.50385 0.600263 4.07245 0.536586 3.62081 0.536586C3.36257 0.536586 3.07933 0.583005 2.88416 0.334249L2.88475 0.334845Z" fill="#D78936"/>
<path d="M6.88404 12.0098C10.0931 12.0175 13.3021 12.0252 16.5112 12.0324C18.6991 12.0371 20.2564 13.4755 20.2558 15.4935C20.2558 17.5127 18.6991 18.9499 16.5124 18.9553C13.3033 18.9624 10.0943 18.9725 6.88582 18.9815C6.85785 18.96 6.82929 18.938 6.80073 18.9166C6.63233 18.6821 6.65256 18.4096 6.65197 18.1435C6.64899 16.379 6.64721 14.614 6.65375 12.8495C6.65494 12.5543 6.60139 12.2329 6.88404 12.0104V12.0098Z" fill="#D78936"/>
<path d="M6.8858 18.9811C6.88402 21.69 6.88699 24.3984 6.87926 27.1073C6.8733 29.1557 5.38809 30.6655 3.40601 30.6541C1.46439 30.6434 0 29.1223 0 27.0942C0.00119008 23.4593 0.0136859 19.8244 0.0214214 16.1895C0.301685 16.2121 0.323107 16.4614 0.399272 16.6447C0.985981 18.0557 2.08204 18.7145 3.56548 18.7752C4.41936 18.8103 5.27503 18.7776 6.12951 18.7865C6.37466 18.7895 6.63469 18.7532 6.83463 18.9543C6.84891 18.9686 6.86557 18.9769 6.88521 18.9799L6.8858 18.9811Z" fill="#CC3941"/>
<path d="M6.83461 18.9561C4.94774 18.8097 2.94305 19.4863 1.22815 18.1396C0.584911 17.6343 0.287986 16.9238 0.020813 16.1906C0.020813 15.7264 0.020813 15.2622 0.020813 14.7981C0.317143 13.0312 1.51377 11.9517 3.35482 11.8422C4.34556 11.7832 5.33987 11.8237 6.333 11.8291C6.53233 11.8303 6.72096 11.8683 6.87448 12.0094C6.87448 12.0094 6.884 12.01 6.884 12.0106C6.86794 14.3261 6.85128 16.6411 6.83461 18.9567V18.9561Z" fill="#CE610F"/>
<path d="M2.88477 0.334961C5.94566 0.500401 6.86559 1.48352 6.86737 4.58522C6.86737 5.45825 6.87808 6.33127 6.88403 7.20429L6.87451 7.20489C6.70433 7.36259 6.49309 7.38639 6.2759 7.38759C5.33039 7.39116 4.38487 7.41556 3.44054 7.37925C2.44087 7.34057 1.57211 6.97518 0.847356 6.2664C0.323126 5.75401 0.0749943 5.13213 0.0208457 4.41621C-0.129104 2.18515 1.00147 0.573599 2.88477 0.334961Z" fill="#CE610F"/>
<path d="M0.0207977 4.41602C0.861589 6.56436 1.80175 7.19457 4.16227 7.19577C5.06614 7.19577 5.97001 7.20172 6.87387 7.20469C6.87387 8.80613 6.87387 10.407 6.87387 12.0084C5.79268 12.0114 4.7109 12.0149 3.62971 12.0179C1.85531 12.0239 0.783639 12.8493 0.0202026 14.7971C0.0202026 11.3365 0.0202026 7.87657 0.0202026 4.41602H0.0207977Z" fill="#CC3941"/>
<path d="M25.8604 19.1195C27.7767 19.1195 29.3301 17.4287 29.3301 15.343C29.3301 13.2572 27.7767 11.5664 25.8604 11.5664C23.9442 11.5664 22.3907 13.2572 22.3907 15.343C22.3907 17.4287 23.9442 19.1195 25.8604 19.1195Z" fill="#C42118"/>
<path d="M131.425 48.9197C131.072 49.0501 129.586 48.9995 129.17 48.8941C129.169 48.8941 129.168 48.8941 129.167 48.8935C128.281 48.7043 127.558 48.2365 126.95 47.5819C126.708 47.3213 126.724 46.8922 126.965 46.6565C127.212 46.4155 127.599 46.4155 127.875 46.6744C128.436 47.1993 129.114 47.6004 129.876 47.6986C131.171 47.8652 132.216 47.3784 133.02 46.3864C133.506 45.7871 133.754 45.0753 133.763 44.3088C133.78 42.8562 133.845 41.4005 133.731 39.9509C133.592 38.1745 131.915 36.7153 130.161 36.8521C128.34 36.9938 126.941 38.3726 126.922 40.2484C126.905 41.9236 128.098 43.3293 129.87 43.6453C130.677 43.7893 131.394 43.5346 132.099 43.1876C132.299 43.0895 132.505 42.9883 132.751 43.0448C133.029 43.1085 133.187 43.2793 133.218 43.5477C133.245 43.7786 133.19 44.0012 132.999 44.1654C132.451 44.6385 131.781 44.8182 131.09 44.9016C130.48 44.9754 129.862 44.9646 129.252 44.8575C127.597 44.5677 125.637 42.6907 125.638 40.4382C125.638 38.7874 126.239 37.5079 127.495 36.4879C128.446 35.7161 129.551 35.5447 130.734 35.5732C132.891 35.6256 134.693 37.6121 134.941 39.1992C135.022 39.7134 134.987 40.2234 134.982 40.7602C134.971 41.8129 134.999 42.9002 134.988 43.9732C134.965 46.5613 133.097 48.7346 131.268 48.9578" fill="#CD6B03"/>
<path d="M121.213 36.4897C121.213 37.8096 121.186 39.1302 121.219 40.4495C121.274 42.7258 119.208 44.5617 117.625 44.8491C114.812 45.3603 112.727 43.9005 112.065 41.7343C111.197 38.8945 112.685 36.5623 115.059 35.772C116.308 35.3566 117.595 35.444 118.792 36.0915C118.932 36.1671 119.069 36.2564 119.19 36.3587C119.483 36.6069 119.529 36.9735 119.317 37.2657C119.114 37.5466 118.76 37.6275 118.439 37.4341C117.929 37.127 117.392 36.8973 116.794 36.8461C115.131 36.7039 113.565 37.9268 113.178 39.5908C112.823 41.1172 113.845 43.3417 116.19 43.6423C117.651 43.8297 119.63 42.8293 119.926 40.5888C119.961 40.3156 119.968 40.0377 119.969 39.7616C119.972 37.2996 119.971 34.8382 119.971 32.3763C119.971 32.2436 119.963 32.1126 120.027 31.9847C120.167 31.7038 120.441 31.552 120.725 31.6145C121.012 31.677 121.211 31.9234 121.212 32.2346C121.214 33.6528 121.213 35.0709 121.213 36.4891L121.213 36.4897Z" fill="#CD6B03"/>
<path d="M155.46 42.1117C155.46 42.8788 155.46 43.6459 155.46 44.4124C155.46 44.8028 155.208 45.0801 154.855 45.0861C154.496 45.092 154.219 44.8022 154.218 44.4094C154.216 43.1252 154.218 41.841 154.217 40.5567C154.217 40.0354 154.144 39.5266 153.952 39.0392C153.389 37.608 151.857 36.6606 150.416 36.8528C148.805 37.0676 147.542 38.3513 147.374 39.9455C147.2 41.5964 148.425 43.2228 150.104 43.5888C150.983 43.7804 151.782 43.6037 152.518 43.1109C152.707 42.9848 152.913 42.936 153.123 42.9639C153.384 42.999 153.592 43.1359 153.666 43.412C153.739 43.6816 153.649 43.8899 153.446 44.0804C152.895 44.5993 152.222 44.8278 151.494 44.8974C150.278 45.0135 149.104 44.907 148.085 44.1321C146.298 42.7735 145.677 41.0471 146.312 38.7321C146.816 36.8926 148.694 35.612 150.595 35.5554C152.362 35.5025 153.689 36.2309 154.705 37.6181C155.199 38.2923 155.437 39.06 155.454 39.8914C155.468 40.6311 155.457 41.372 155.457 42.1117C155.457 42.1117 155.458 42.1117 155.459 42.1117H155.46Z" fill="#CD6B03"/>
<path d="M139.877 36.543C139.877 35.1611 139.877 33.7793 139.877 32.3975C139.877 32.3082 139.873 32.2183 139.884 32.1302C139.925 31.7773 140.202 31.5339 140.534 31.5506C140.869 31.5673 141.117 31.8327 141.117 32.1933C141.119 33.183 141.115 34.1727 141.113 35.1623C141.113 35.4333 141.248 35.5688 141.518 35.5688C142.561 35.567 143.604 35.5646 144.646 35.5634C145.008 35.5634 145.286 35.8241 145.291 36.1687C145.296 36.5144 145.005 36.812 144.649 36.8126C143.553 36.8149 142.456 36.8185 141.36 36.809C141.161 36.8072 141.105 36.8578 141.107 37.0607C141.118 38.0415 141.111 39.0222 141.113 40.0029C141.115 42.1019 142.547 43.5944 144.644 43.6866C144.956 43.7003 145.2 43.8848 145.272 44.1627C145.343 44.4341 145.219 44.7073 144.956 44.8656C144.894 44.903 144.832 44.9233 144.757 44.9298C142.107 45.1738 140.101 42.9207 139.906 41.0628C139.884 40.8504 139.877 40.6355 139.877 40.4219C139.875 39.1293 139.876 37.8361 139.876 36.5436L139.877 36.543Z" fill="#CD6B03"/>
<path d="M158.465 32.1902C158.462 32.2521 158.456 32.3146 158.456 32.3765C158.456 36.3732 158.456 40.3705 158.456 44.3673C158.456 44.4292 158.462 44.4917 158.464 44.5536C158.382 44.8577 158.201 45.0576 157.874 45.0844C157.609 45.1064 157.381 44.9481 157.262 44.6916C157.217 44.5964 157.224 44.5012 157.224 44.4042C157.223 40.3747 157.223 36.3452 157.224 32.3158C157.224 31.9153 157.429 31.6492 157.765 31.607C158.111 31.5635 158.375 31.7831 158.466 32.1896L158.465 32.1902Z" fill="#CD6B03"/>
<path d="M124.049 40.2442C124.049 41.6349 124.049 43.0263 124.049 44.4171C124.049 44.8027 123.793 45.0836 123.439 45.0865C123.091 45.0895 122.809 44.8033 122.808 44.4319C122.806 41.6409 122.806 38.8498 122.808 36.0588C122.808 35.685 123.089 35.4 123.437 35.4024C123.792 35.4047 124.049 35.685 124.049 36.0713C124.049 37.462 124.049 38.8534 124.049 40.2442H124.049Z" fill="#CD6B03"/>
<path d="M137.908 40.2721C137.908 41.6546 137.908 43.0364 137.908 44.4188C137.908 44.8039 137.651 45.0848 137.297 45.0871C136.948 45.0895 136.667 44.8033 136.666 44.4313C136.665 41.6403 136.665 38.8492 136.666 36.0582C136.666 35.6844 136.948 35.4 137.297 35.4024C137.652 35.4053 137.907 35.6856 137.907 36.0725C137.907 37.4721 137.907 38.8724 137.907 40.2721H137.908Z" fill="#CD6B03"/>
<path d="M138.014 32.5577C138.018 32.9701 137.686 33.3094 137.274 33.3135C136.862 33.3177 136.522 32.9856 136.518 32.5732C136.514 32.1608 136.846 31.8216 137.258 31.8174C137.671 31.8133 138.01 32.1453 138.014 32.5577Z" fill="#CD6B03"/>
<path d="M123.402 33.3127C122.993 33.3098 122.654 32.9652 122.661 32.5575C122.667 32.1785 123.022 31.8238 123.401 31.8184C123.786 31.8131 124.157 32.1838 124.153 32.5706C124.15 32.9836 123.814 33.3151 123.402 33.3127H123.402Z" fill="#CD6B03"/>
<path d="M70.7859 13.551V29.0911H67.2555V26.5387C66.6986 27.2647 65.8887 27.9342 64.826 28.5472C63.7633 29.1601 62.5607 29.4666 61.2201 29.4666C59.7265 29.4666 58.3793 29.1476 57.1774 28.5097C55.9754 27.8717 55.0263 26.9398 54.3307 25.7133C53.6345 24.4873 53.287 23.0234 53.287 21.3214C53.287 19.6194 53.6476 18.1369 54.3688 16.8735C55.09 15.6101 56.064 14.6341 57.2916 13.9456C58.5186 13.2577 59.8788 12.9131 61.3724 12.9131C62.7136 12.9131 63.8775 13.2011 64.8647 13.7766C65.8518 14.3527 66.6486 15.1031 67.2561 16.0291L67.5221 13.5516H70.7865L70.7859 13.551ZM65.4907 25.5068C66.4142 24.7938 67.0027 23.8238 67.2555 22.5979V19.52C66.9521 18.419 66.319 17.5246 65.3574 16.836C64.3952 16.1481 63.2944 15.8035 62.0549 15.8035C61.1183 15.8035 60.2519 16.0285 59.4546 16.479C58.6572 16.9295 58.0247 17.5615 57.5564 18.3744C57.0881 19.1879 56.8542 20.1073 56.8542 21.1333C56.8542 22.1593 57.0946 23.0478 57.5754 23.8738C58.0556 24.6998 58.7013 25.3568 59.5111 25.8448C60.321 26.3328 61.2064 26.5768 62.168 26.5768C63.4586 26.5768 64.5654 26.2203 65.4895 25.5068H65.4907Z" fill="#142B4E"/>
<path d="M88.436 14.2451C89.3976 15.1087 89.8909 16.2286 89.9165 17.6045V29.0907H86.3486V18.8055C86.2974 17.9301 86.0321 17.2421 85.5513 16.741C85.0705 16.2405 84.3493 15.9781 83.3877 15.9525C81.9959 15.9525 80.8445 16.503 79.9335 17.6039C79.0225 18.7055 78.5667 20.1064 78.5667 21.8084V29.0907H75.0363V13.5507H78.2245L78.4524 16.5536C79.0088 15.4276 79.8436 14.5451 80.9576 13.9071C82.0709 13.2692 83.349 12.9502 84.7914 12.9502C86.2338 12.9502 87.4732 13.3816 88.4354 14.2451H88.436Z" fill="#142B4E"/>
<path d="M110.262 13.551V29.0911H106.732V26.5387C106.175 27.2647 105.365 27.9342 104.302 28.5472C103.239 29.1601 102.037 29.4666 100.696 29.4666C99.2026 29.4666 97.8555 29.1476 96.6535 28.5097C95.4515 27.8717 94.5024 26.9398 93.8068 25.7133C93.1106 24.4873 92.7631 23.0234 92.7631 21.3214C92.7631 19.6194 93.1237 18.1369 93.8449 16.8735C94.5661 15.6101 95.5402 14.6341 96.7677 13.9456C97.9947 13.2577 99.355 12.9131 100.849 12.9131C102.19 12.9131 103.354 13.2011 104.341 13.7766C105.328 14.3527 106.125 15.1031 106.732 16.0291L106.998 13.5516H110.263L110.262 13.551ZM104.967 25.5068C105.89 24.7938 106.479 23.8238 106.732 22.5979V19.52C106.428 18.419 105.795 17.5246 104.834 16.836C103.871 16.1481 102.771 15.8035 101.531 15.8035C100.594 15.8035 99.7281 16.0285 98.9307 16.479C98.1334 16.9295 97.5008 17.5615 97.0325 18.3744C96.5642 19.1879 96.3304 20.1073 96.3304 21.1333C96.3304 22.1593 96.5708 23.0478 97.0516 23.8738C97.5318 24.6998 98.1774 25.3568 98.9872 25.8448C99.7971 26.3328 100.683 26.5768 101.644 26.5768C102.935 26.5768 104.042 26.2203 104.966 25.5068H104.967Z" fill="#142B4E"/>
<path d="M118.043 0V29.0913H114.513V0H118.043Z" fill="#142B4E"/>
<path d="M122.674 6.56883C123.104 6.19332 123.597 6.00586 124.154 6.00586C124.711 6.00586 125.198 6.19332 125.616 6.56883C126.034 6.94434 126.242 7.40734 126.242 7.95781C126.242 8.50829 126.034 8.97128 125.616 9.3468C125.198 9.72231 124.711 9.90977 124.154 9.90977C123.598 9.90977 123.104 9.72231 122.674 9.3468C122.243 8.97128 122.029 8.50888 122.029 7.95781C122.029 7.40674 122.244 6.94434 122.674 6.56883ZM125.825 13.5506V29.0907H122.294V13.5506H125.825Z" fill="#142B4E"/>
<path d="M131.196 28.8279C130.145 28.428 129.291 27.8394 128.633 27.0634L130.152 25.0365C130.784 25.6369 131.448 26.1005 132.145 26.4254C132.84 26.751 133.53 26.9134 134.214 26.9134C135.048 26.9134 135.732 26.751 136.263 26.4254C136.795 26.1005 137.061 25.5994 137.061 24.924C137.061 24.3985 136.896 23.973 136.568 23.6475C136.239 23.3225 135.865 23.0845 135.448 22.9345C135.03 22.7846 134.328 22.559 133.341 22.2591C130.659 21.4087 129.318 19.8941 129.318 17.7172C129.318 16.4163 129.804 15.3023 130.779 14.3763C131.753 13.4509 133.113 12.9873 134.86 12.9873C135.973 12.9873 136.96 13.1254 137.821 13.4003C138.681 13.6758 139.478 14.1132 140.212 14.7143L138.808 16.8537C138.403 16.4282 137.89 16.0908 137.27 15.8403C136.65 15.5903 136.062 15.4528 135.505 15.4272C134.797 15.4272 134.189 15.5963 133.683 15.9343C133.177 16.2723 132.924 16.7287 132.924 17.3042C132.924 17.7797 133.088 18.1743 133.417 18.4867C133.746 18.7997 134.087 19.0253 134.442 19.1621C134.796 19.3002 135.492 19.5317 136.53 19.8566C137.821 20.2827 138.826 20.8326 139.548 21.5081C140.269 22.1835 140.629 23.0976 140.629 24.2485C140.629 25.75 140.098 26.989 139.035 27.965C137.972 28.941 136.466 29.4289 134.518 29.4289C133.354 29.4289 132.246 29.2284 131.197 28.8285L131.196 28.8279Z" fill="#142B4E"/>
<path d="M154.862 25.1124L156.494 27.7023C155.659 28.2528 154.754 28.6849 153.78 28.9973C152.806 29.3097 151.864 29.4662 150.953 29.4662C149.207 29.4662 147.682 29.1098 146.379 28.3962C145.075 27.6833 144.069 26.7014 143.361 25.4498C142.652 24.1989 142.298 22.785 142.298 21.2079C142.298 19.6309 142.684 18.2865 143.456 17.0225C144.228 15.7591 145.284 14.7581 146.626 14.0196C147.967 13.2817 149.435 12.9121 151.029 12.9121C153.079 12.9121 154.793 13.5066 156.173 14.6951C157.552 15.8841 158.494 17.542 159.001 19.669L146.551 23.9859C147.006 24.7619 147.619 25.3689 148.392 25.8063C149.163 26.2443 150.043 26.4633 151.03 26.4633C152.346 26.4633 153.624 26.0128 154.864 25.1118L154.862 25.1124ZM147.194 17.1921C146.258 18.1931 145.79 19.4696 145.79 21.0211C145.79 21.3966 145.803 21.6846 145.828 21.8846L154.976 18.5436C154.597 17.6932 154.059 17.0047 153.363 16.4792C152.667 15.9537 151.801 15.6907 150.763 15.6907C149.32 15.6907 148.13 16.1918 147.195 17.1921H147.194Z" fill="#142B4E"/>
</g>
<defs>
<clipPath id="clip0_105_1275">
<rect width="159" height="49" fill="white"/>
</clipPath>
</defs>
</svg>
