<svg width="132" height="36" viewBox="0 0 132 36" fill="none" xmlns="http://www.w3.org/2000/svg">
<path d="M54.888 0.511719C51.7771 0.511719 48.9367 1.0247 46.3614 2.0506C45.6733 2.33942 45.3888 2.78701 45.508 3.3921L45.9284 5.83792C46.027 6.575 46.4473 6.7985 47.1901 6.50903C49.3171 5.7726 51.3048 5.40535 53.1534 5.40535C55.9152 5.40535 57.1409 6.39205 56.8312 8.36414L56.8019 8.54907L56.8352 8.55494L55.329 20.1234L55.3124 21.1069C55.329 21.6852 55.6594 21.9746 56.3016 21.9746H59.9607C60.6842 21.9746 61.1045 21.6074 61.2197 20.8703L63.2381 8.0093C64.0229 3.01244 61.2384 0.513713 54.8834 0.513713L54.888 0.511719Z" fill="#1D2D5A"/>
<path d="M56.2134 11.7535L56.3963 10.3511L63.8788 7.1543V7.80258L56.2134 11.7535Z" fill="white"/>
<path d="M65.2207 7.16607C65.5357 7.0633 65.4334 6.609 65.1042 6.64565C59.0346 7.3035 41.86 10.2406 43.5537 17.8952C43.5537 17.8952 44.4743 22.3064 49.1144 22.4687C51.0655 22.5368 52.3141 22.3849 53.1013 22.1873C53.8886 21.9902 54.4034 21.3756 54.501 20.6294L55.0308 16.5284C55.0714 16.2221 54.7476 15.9943 54.4583 16.1278C53.354 16.6378 51.1888 17.4226 50.3697 16.1789C49.1801 14.3742 50.5249 12.0125 65.2234 7.16607H65.2207Z" fill="#40B0E5"/>
<path d="M31.5514 1.25752H35.2683C35.9073 1.25752 36.2258 1.56944 36.2258 2.19193L36.0352 4.83947C36.6742 3.85386 37.5813 2.96939 38.7558 2.19193C39.9304 1.41251 41.209 1.02246 42.5884 1.02246C42.9456 1.02246 43.1892 1.09471 43.3165 1.2372C43.4444 1.37969 43.4709 1.63311 43.394 1.99623L42.704 6.28079C42.5761 6.85206 42.2194 7.13637 41.6309 7.13637C41.5029 7.13637 41.2917 7.12389 40.9977 7.09697C40.7037 7.07267 40.4421 7.05826 40.2127 7.05826C38.8573 7.05826 37.6911 7.52378 36.7071 8.45817C35.7232 9.39191 35.112 10.5693 34.871 11.9942L33.3288 20.8791C33.2274 21.6093 32.8462 21.9744 32.1826 21.9744H28.0581C27.3196 21.9744 27.0011 21.6112 27.1025 20.8837L30.3646 2.30747C30.466 1.60619 30.864 1.25555 31.554 1.25555L31.5514 1.25752Z" fill="#1D2D5A"/>
<path d="M84.7985 2.08759L84.3744 4.34004C84.2724 4.94698 83.9886 5.45963 83.5274 5.88063L72.6224 16.8931H81.3289C82.0732 16.8931 82.3694 17.2477 82.2161 17.9563L81.6777 20.8714C81.5737 21.6078 81.1905 21.9744 80.5215 21.9744H65.3714C64.627 21.9744 64.3049 21.6078 64.4088 20.8714L64.7946 18.6256C64.9232 18.1004 65.1654 17.6541 65.5266 17.2869L76.6603 6.10176H68.3779C67.6582 6.10176 67.3497 5.74715 67.4543 5.03862L67.9927 2.0856C68.1207 1.37707 68.5188 1.02246 69.1878 1.02246H83.8788C84.6231 1.02246 84.931 1.37905 84.8024 2.08759H84.7985Z" fill="#1D2D5A"/>
<path d="M95.0405 22.4857C92.1982 22.4857 89.9583 21.7607 88.315 20.3076C86.6737 18.8571 85.8517 16.7717 85.8517 14.0529C85.8517 13.2606 85.9309 12.3908 86.0858 11.4389C86.7106 7.85038 88.0665 5.13162 90.1508 3.28327C92.2358 1.43625 94.8955 0.511719 98.1267 0.511719C100.966 0.511719 103.208 1.23731 104.852 2.68982C106.493 4.14234 107.315 6.22632 107.315 8.94444C107.315 9.73678 107.236 10.6072 107.081 11.5584C106.456 15.149 105.1 17.8678 103.016 19.7148C100.929 21.5612 98.2711 22.4857 95.0405 22.4857ZM95.5474 17.4967C98.1801 17.4967 99.861 15.5034 100.592 11.519C100.749 10.6219 100.825 9.8416 100.825 9.18343C100.825 6.72898 99.7555 5.50073 97.6192 5.50073C94.9865 5.50073 93.3056 7.50661 92.5752 11.519C92.4177 12.3888 92.3412 13.1558 92.3412 13.814C92.3412 16.2684 93.4091 17.4967 95.5474 17.4967Z" fill="#40B0E5"/>
<path d="M131.019 8.90185L128.926 20.8599C128.822 21.6035 128.422 21.9746 127.723 21.9746H123.532C122.807 21.9746 122.496 21.6075 122.601 20.8699L124.578 9.58299C124.671 9.11074 124.716 8.68901 124.716 8.32119C124.716 6.69224 123.85 5.87743 122.115 5.87743C120.878 5.87743 119.873 6.25127 119.097 6.99889C118.322 7.74718 117.828 8.76416 117.619 10.0506L115.726 20.8639C115.622 21.6035 115.217 21.9727 114.515 21.9727H110.336C109.554 21.9727 109.241 21.6055 109.399 20.8678L112.694 2.05085C112.851 1.34113 113.256 0.985936 113.907 0.985936H117.706C118.384 0.985936 118.724 1.27597 118.724 1.85265L118.685 3.62793C120.433 1.55201 122.639 0.511719 125.301 0.511719C129.322 0.511719 131.333 2.44396 131.333 6.30979C131.333 7.09533 131.228 7.95801 131.019 8.89986V8.90185Z" fill="#40B0E5"/>
<path d="M26.0185 1.70534L22.7828 20.1686C21.619 26.8151 17.157 30.1424 9.39752 30.1503C7.82649 30.1503 6.18107 30.0218 4.45792 29.7662C2.73477 29.5079 1.46467 29.1688 0.646938 28.745C0.010557 28.3827 -0.156176 27.8675 0.146072 27.2039L1.46467 24.3919C1.85859 23.5766 2.43452 23.319 3.19379 23.6204C5.10427 24.3462 7.13431 24.7085 9.28923 24.7085C11.2894 24.7085 12.8206 24.3005 13.8821 23.4833C14.9443 22.668 15.6404 21.4574 15.9746 19.8567L16.2662 18.2964C14.6626 20.4243 12.4074 21.4892 9.50181 21.4892C6.95894 21.4892 4.92292 20.8402 3.39573 19.5382C1.86722 18.2381 1.1033 16.2586 1.1033 13.599C1.1033 12.7234 1.19563 11.785 1.37698 10.787C2.04459 7.10017 3.3127 4.37956 5.17933 2.62655C7.04264 0.877504 9.37228 0 12.1636 0C13.6509 0 15.0253 0.301343 16.2835 0.906654C17.5429 1.51196 18.4005 2.31265 18.8549 3.31068L19.4016 1.50138C19.6394 0.833811 20.1024 0.501348 20.7866 0.501348H24.9444C25.8411 0.501348 26.1978 0.904657 26.0165 1.70732L26.0185 1.70534ZM17.6725 10.7684C17.7934 10.1883 17.8538 9.57437 17.8538 8.93198C17.8538 6.45311 16.6229 5.21336 14.1597 5.21336C11.1851 5.21336 9.36629 7.08757 8.70268 10.8373C8.5758 11.8042 8.5127 12.4698 8.5127 12.8314C8.5127 15.2791 9.73099 16.5043 12.1676 16.5043C15.109 16.5043 16.9444 14.593 17.6725 10.7684Z" fill="#1D2D5A"/>
<path d="M30.1176 33.8017C29.6961 34.0935 29.15 34.2387 28.4826 34.2387C27.743 34.2387 27.1433 34.1326 26.6786 33.9204C26.588 33.8826 26.5548 33.8269 26.5837 33.75L26.8068 33.2725C26.8493 33.1604 26.9147 33.1246 27.0077 33.171C27.4435 33.36 27.9211 33.4542 28.4419 33.4542C29.4194 33.4542 29.9087 33.1246 29.9087 32.4667C29.9087 32.2313 29.8138 32.0443 29.6246 31.9044C29.4348 31.7651 29.1254 31.6066 28.6952 31.4342C28.477 31.3506 28.3008 31.2717 28.1633 31.1941C28.0259 31.1192 27.8804 31.0217 27.7257 30.905C27.571 30.7883 27.457 30.6444 27.3831 30.4799C27.3097 30.3135 27.2727 30.1198 27.2727 29.901C27.2727 29.2955 27.4663 28.8452 27.8533 28.5495C28.2404 28.2544 28.7494 28.1064 29.3842 28.1064C30.1084 28.1064 30.6754 28.2166 31.0834 28.4354C31.1691 28.4725 31.1919 28.5329 31.1573 28.6164L30.9459 29.0601C30.8979 29.1662 30.8338 29.1994 30.7567 29.1622C30.3561 28.9805 29.9186 28.889 29.4483 28.889C28.5695 28.889 28.13 29.1894 28.13 29.7869C28.13 29.8386 28.1362 29.891 28.1461 29.9408C28.1553 29.9905 28.175 30.0369 28.204 30.0761C28.233 30.1178 28.2564 30.1556 28.2773 30.1908C28.2989 30.2239 28.3371 30.2617 28.3938 30.2989C28.4499 30.3367 28.4961 30.3699 28.5313 30.3951C28.5658 30.4216 28.6218 30.4534 28.6995 30.4905C28.7765 30.5283 28.8369 30.5595 28.8795 30.5821C28.922 30.6053 28.9935 30.6384 29.0958 30.6842C29.1987 30.7299 29.2739 30.7631 29.3226 30.7863C29.8002 31.0131 30.1608 31.2446 30.3987 31.48C30.6366 31.7154 30.7567 32.0251 30.7567 32.4104C30.7567 33.0457 30.5453 33.5099 30.1238 33.8017H30.1176Z" fill="#1D2D5A"/>
<path d="M36.57 33.0954C36.7027 33.0353 36.7848 33.0683 36.8169 33.1972L36.9113 33.6162C36.9353 33.6994 36.8792 33.7675 36.7479 33.8197C36.1316 34.0979 35.5153 34.2387 34.899 34.2387C34.0549 34.2387 33.3927 34.0253 32.9139 33.5997C32.4351 33.1741 32.1943 32.5786 32.1943 31.8173C32.1943 31.5906 32.2183 31.3461 32.2655 31.0824C32.4372 30.14 32.8086 29.4077 33.3777 28.8869C33.9475 28.3655 34.6582 28.1064 35.5084 28.1064C36.2431 28.1064 36.8101 28.2994 37.2123 28.6834C37.6138 29.0674 37.8156 29.5822 37.8156 30.2232C37.8156 30.3891 37.7965 30.5926 37.7575 30.8332L37.6631 31.3996C37.6398 31.5199 37.5625 31.5806 37.4291 31.5806H33.1075C33.0986 31.6322 33.0966 31.7089 33.0966 31.8067C33.0966 32.3043 33.2641 32.7055 33.5993 33.0062C33.9345 33.3069 34.3962 33.4582 34.9804 33.4582C35.5262 33.4582 36.0584 33.3379 36.5721 33.0954H36.57ZM33.2429 30.8207H36.8491L36.86 30.7645C36.8922 30.6131 36.9072 30.4473 36.9072 30.2668C36.9072 29.8373 36.7869 29.4989 36.544 29.2537C36.3012 29.0092 35.9387 28.8869 35.4551 28.8869C34.2847 28.8869 33.5453 29.532 33.2429 30.8207Z" fill="#1D2D5A"/>
<path d="M43.6391 33.1112C43.5245 33.8059 43.2235 34.3391 42.7392 34.707C42.255 35.0755 41.6297 35.2608 40.8684 35.2608C40.0064 35.2608 39.3597 35.1518 38.929 34.9307C38.8421 34.8865 38.8182 34.8281 38.8541 34.7557L39.0908 34.3045C39.1563 34.1879 39.2313 34.152 39.3188 34.1962C39.7633 34.3853 40.2854 34.4821 40.8823 34.4821C41.393 34.4821 41.818 34.3571 42.1599 34.1097C42.5018 33.8597 42.7115 33.5098 42.7909 33.0567L42.8992 32.4312C42.4962 33.0971 41.8753 33.4291 41.0347 33.4291C40.4239 33.4291 39.9277 33.2644 39.548 32.9362C39.1664 32.6081 38.9762 32.1133 38.9762 31.4551C38.9762 31.2501 38.9983 31.0264 39.0417 30.7847C39.1998 29.8933 39.5165 29.2229 39.9907 28.7762C40.4654 28.3295 41.0466 28.1064 41.7368 28.1064C42.1461 28.1064 42.5176 28.1968 42.8519 28.3756C43.1863 28.5551 43.396 28.7864 43.4829 29.0723L43.6013 28.4019C43.6233 28.2936 43.6901 28.2372 43.8072 28.2372H44.3248C44.4337 28.2372 44.4753 28.2955 44.4539 28.4122L43.6447 33.1074L43.6391 33.1112ZM43.2398 30.1708C43.2398 29.2998 42.7827 28.8647 41.8715 28.8647C40.7859 28.8647 40.1349 29.5049 39.9195 30.7847C39.8842 30.9764 39.866 31.1795 39.866 31.3987C39.866 32.262 40.3112 32.6927 41.2028 32.6927C41.7128 32.6927 42.1442 32.5235 42.4962 32.1813C42.8482 31.8416 43.0774 31.3507 43.1863 30.7066C43.2216 30.4867 43.2398 30.3079 43.2398 30.1689V30.1708Z" fill="#1D2D5A"/>
<path d="M46.1717 28.2916C46.1947 28.1682 46.2652 28.1064 46.387 28.1064H46.9388C47.0527 28.1064 47.0962 28.1682 47.0731 28.2916L46.4528 31.9045C46.4305 32.051 46.4199 32.1942 46.4199 32.3346C46.4199 33.0313 46.811 33.3806 47.5926 33.3806C48.1029 33.3806 48.5454 33.2294 48.9181 32.9268C49.2901 32.6243 49.5213 32.2152 49.6101 31.6956L50.1955 28.2937C50.2186 28.1702 50.2884 28.1085 50.4108 28.1085H50.9626C51.0765 28.1085 51.12 28.1702 51.0969 28.2937L50.1277 33.9382C50.1047 34.0623 50.0408 34.1241 49.9348 34.1241H49.383C49.2546 34.1241 49.2032 34.0664 49.2256 33.9491L49.3606 33.1826C48.8951 33.8874 48.2208 34.2387 47.3424 34.2387C46.734 34.2387 46.2711 34.0922 45.9551 33.7978C45.6383 33.5041 45.4816 33.093 45.4816 32.5666C45.4816 32.3814 45.4961 32.2112 45.5271 32.0558L46.1697 28.2916H46.1717Z" fill="#1D2D5A"/>
<path d="M53.9305 28.1306C54.0554 28.1306 54.1066 28.1891 54.0827 28.3076L53.8834 29.4627C54.0704 29.1252 54.3599 28.8138 54.7477 28.5308C55.1356 28.2477 55.5862 28.1064 56.0921 28.1064C56.1863 28.1064 56.2246 28.1547 56.2095 28.2477L56.0812 28.9895C56.058 29.0907 55.9999 29.1431 55.9057 29.1431C55.8907 29.1431 55.8518 29.1383 55.7937 29.1321C55.7364 29.1231 55.6784 29.121 55.6244 29.121C55.1574 29.121 54.7177 29.3483 54.3101 29.805C53.9011 30.261 53.6498 30.7714 53.5556 31.3382L53.0757 34.0507C53.0518 34.176 52.9807 34.2387 52.8653 34.2387H52.2925C52.1601 34.2387 52.1061 34.176 52.13 34.0507L53.135 28.3186C53.1589 28.1932 53.232 28.1306 53.3583 28.1306H53.9305Z" fill="#1D2D5A"/>
<path d="M56.7899 33.6365C56.4064 33.2345 56.2134 32.664 56.2134 31.9224C56.2134 31.6956 56.2341 31.4455 56.2748 31.1729C56.4306 30.1872 56.7598 29.4311 57.2643 28.9024C57.7682 28.3731 58.4054 28.1064 59.1724 28.1064C59.8392 28.1064 60.3637 28.3068 60.7472 28.7087C61.1308 29.1107 61.3237 29.6811 61.3237 30.4227C61.3237 30.6496 61.303 30.8996 61.2623 31.1729C61.1066 32.1559 60.7767 32.9141 60.2729 33.4427C59.7672 33.9721 59.1353 34.2387 58.3741 34.2387C57.7015 34.2387 57.1716 34.0384 56.7881 33.6365H56.7899ZM59.7283 32.8657C60.0787 32.4869 60.31 31.9225 60.4251 31.1749C60.4658 30.9249 60.4858 30.698 60.4858 30.4937C60.4858 29.971 60.3673 29.577 60.1324 29.3123C59.897 29.0483 59.5595 28.915 59.1223 28.915C58.5907 28.915 58.1535 29.1041 57.8089 29.4835C57.4643 29.8622 57.2324 30.4267 57.1121 31.1749C57.0714 31.4243 57.0507 31.6518 57.0507 31.8561C57.0507 32.3788 57.1693 32.7721 57.4047 33.0368C57.6401 33.3015 57.9776 33.4348 58.4148 33.4348C58.9388 33.4348 59.3784 33.2451 59.7283 32.8657Z" fill="#1D2D5A"/>
<path d="M65.8892 33.8017C65.467 34.0935 64.9215 34.2387 64.2541 34.2387C63.5144 34.2387 62.9147 34.1326 62.45 33.9204C62.3588 33.8826 62.3261 33.8269 62.3551 33.75L62.5776 33.2725C62.6201 33.1604 62.6861 33.1246 62.7791 33.171C63.2143 33.36 63.6926 33.4542 64.2134 33.4542C65.1903 33.4542 65.6803 33.1246 65.6803 32.4667C65.6803 32.2313 65.5854 32.0443 65.3955 31.9044C65.2063 31.7651 64.8963 31.6066 64.4667 31.4342C64.2479 31.3506 64.0716 31.2717 63.9342 31.1941C63.7967 31.1192 63.6519 31.0217 63.4972 30.905C63.3425 30.7883 63.2278 30.6444 63.1545 30.4799C63.0811 30.3135 63.0442 30.1198 63.0442 29.901C63.0442 29.2955 63.2377 28.8452 63.6248 28.5495C64.0118 28.2544 64.5209 28.1064 65.1558 28.1064C65.8793 28.1064 66.4464 28.2166 66.855 28.4354C66.9401 28.4725 66.9635 28.5329 66.9284 28.6164L66.7176 29.0601C66.6695 29.1662 66.6054 29.1994 66.5277 29.1622C66.1271 28.9805 65.6901 28.889 65.2199 28.889C64.341 28.889 63.9015 29.1894 63.9015 29.7869C63.9015 29.8386 63.907 29.891 63.9169 29.9408C63.9268 29.9905 63.9459 30.0369 63.9748 30.0761C64.0038 30.1178 64.0272 30.1556 64.0488 30.1908C64.0698 30.2239 64.1086 30.2617 64.1647 30.2989C64.2208 30.3367 64.2676 30.3699 64.3021 30.3951C64.3373 30.4216 64.3933 30.4534 64.4704 30.4905C64.548 30.5283 64.6078 30.5595 64.6504 30.5821C64.6929 30.6053 64.765 30.6384 64.8673 30.6842C64.9696 30.7299 65.0454 30.7631 65.0935 30.7863C65.5718 31.0131 65.9317 31.2446 66.1696 31.48C66.41 31.7154 66.5277 32.0251 66.5277 32.4104C66.5277 33.0457 66.3169 33.5099 65.8948 33.8017H65.8892Z" fill="#1D2D5A"/>
<path d="M72.0667 34.0511C72.0404 34.1756 71.9677 34.2379 71.8478 34.2379H71.2053C71.0681 34.2379 71.0118 34.1756 71.0381 34.0511L72.1417 28.3582C72.1679 28.2337 72.2451 28.1715 72.3725 28.1715H73.0151C73.1448 28.1715 73.1942 28.2337 73.168 28.3582L72.0644 34.0511H72.0667ZM73.3899 27.1979C73.3802 27.3224 73.3097 27.3847 73.171 27.3847H72.5277C72.4078 27.3847 72.3516 27.3224 72.3606 27.1979L72.554 26.2483C72.5795 26.1238 72.6575 26.0615 72.7849 26.0615H73.4274C73.5541 26.0615 73.6066 26.1238 73.5803 26.2483L73.3869 27.1979H73.3899Z" fill="#1D2D5A"/>
<path d="M78.804 34.0542C78.781 34.1772 78.7126 34.2387 78.6015 34.2387H78.0501C77.9226 34.2387 77.8706 34.1772 77.8936 34.0542L78.5352 30.3512C78.5661 30.1499 78.5805 30.0079 78.5805 29.9228C78.5805 29.2903 78.2276 28.9741 77.5243 28.9741C77.0201 28.9741 76.5975 29.1248 76.2524 29.4261C75.908 29.7275 75.6931 30.1242 75.6109 30.6188L75.0141 34.0542C74.9918 34.1772 74.9234 34.2387 74.8117 34.2387H74.2609C74.1327 34.2387 74.0814 34.1772 74.1038 34.0542L75.0719 28.4315C75.0949 28.3078 75.1646 28.2463 75.2869 28.2463H75.8377C75.9573 28.2463 76.0073 28.3038 75.9842 28.4207L75.8607 29.1721C76.259 28.4632 76.9025 28.1064 77.7964 28.1064C78.7705 28.1064 79.32 28.4801 79.4396 29.2288C79.9266 28.4801 80.6424 28.1064 81.5882 28.1064C82.1351 28.1064 82.5584 28.2531 82.8535 28.5457C83.1506 28.839 83.2972 29.2397 83.2972 29.7492C83.2972 29.9188 83.2827 30.0803 83.2518 30.235L82.5873 34.0522C82.5643 34.1752 82.5005 34.2367 82.3947 34.2367H81.8439C81.7157 34.2367 81.6645 34.1752 81.6868 34.0522L82.329 30.362C82.3599 30.1607 82.3743 30.0181 82.3743 29.9336C82.3743 29.2931 82.0174 28.9721 81.3049 28.9721C80.8179 28.9721 80.4012 29.1187 80.0568 29.4113C79.7117 29.7046 79.4974 30.0715 79.4146 30.5107L78.8079 34.0502L78.804 34.0542Z" fill="#1D2D5A"/>
<path d="M84.9526 33.6365C84.5307 33.2345 84.3191 32.664 84.3191 31.9224C84.3191 31.6956 84.3412 31.4455 84.3859 31.1729C84.5573 30.1872 84.9202 29.4311 85.4745 28.9024C86.0308 28.3731 86.7305 28.1064 87.5744 28.1064C88.3079 28.1064 88.8849 28.3068 89.3068 28.7087C89.7288 29.1107 89.9404 29.6811 89.9404 30.4227C89.9404 30.6496 89.9183 30.8996 89.8735 31.1729C89.7021 32.1559 89.3393 32.9141 88.785 33.4427C88.2287 33.9721 87.5335 34.2387 86.6955 34.2387C85.9555 34.2387 85.3726 34.0384 84.9507 33.6365H84.9526ZM88.1878 32.8657C88.5727 32.4869 88.8278 31.9225 88.9537 31.1749C88.9992 30.9249 89.0212 30.698 89.0212 30.4937C89.0212 29.971 88.8908 29.577 88.6318 29.3123C88.3734 29.0483 88.0021 28.915 87.5211 28.915C86.9363 28.915 86.4553 29.1041 86.0762 29.4835C85.6965 29.8622 85.4421 30.4267 85.3096 31.1749C85.2648 31.4243 85.2421 31.6518 85.2421 31.8561C85.2421 32.3788 85.3726 32.7721 85.6316 33.0368C85.8906 33.3015 86.2612 33.4348 86.7422 33.4348C87.3193 33.4348 87.8022 33.2451 88.1878 32.8657Z" fill="#1D2D5A"/>
<path d="M91.9405 33.9495C91.9164 34.0635 91.8468 34.1219 91.7332 34.1219H91.1381C90.9997 34.1219 90.9436 34.0608 90.9684 33.9387L92.4155 26.2339C92.4397 26.1206 92.5135 26.0615 92.6342 26.0615H93.2293C93.3677 26.0615 93.4231 26.1185 93.3989 26.2339L92.8394 29.1745C93.35 28.4165 94.1367 28.0369 95.1982 28.0369C95.9431 28.0369 96.5317 28.2287 96.962 28.6124C97.3923 28.9954 97.606 29.5581 97.606 30.2993C97.606 30.5817 97.5769 30.8614 97.5215 31.1377C97.3277 32.172 96.9528 32.9467 96.3975 33.4632C95.8423 33.979 95.1315 34.2379 94.2638 34.2379C93.7199 34.2379 93.252 34.1433 92.8551 33.9555C92.4581 33.7684 92.2061 33.49 92.101 33.1238L91.9426 33.9515L91.9405 33.9495ZM92.4155 31.8031C92.4155 32.3316 92.5582 32.7341 92.8479 33.0077C93.1355 33.2841 93.5552 33.4209 94.1055 33.4209C94.7608 33.4209 95.292 33.2398 95.6932 32.8749C96.0943 32.5107 96.3684 31.9319 96.514 31.1357C96.5693 30.7983 96.5985 30.5414 96.5985 30.3664C96.5985 29.3556 96.0524 28.8505 94.9575 28.8505C94.3021 28.8505 93.7575 29.0463 93.3272 29.436C92.897 29.8251 92.6136 30.3918 92.4759 31.1357C92.4354 31.3336 92.4155 31.5569 92.4155 31.8011V31.8031Z" fill="#1D2D5A"/>
<path d="M99.1527 34.0511C99.1272 34.1756 99.0536 34.2379 98.9336 34.2379H98.2905C98.154 34.2379 98.0969 34.1756 98.1232 34.0511L99.2285 28.3582C99.254 28.2337 99.332 28.1715 99.4588 28.1715H100.103C100.232 28.1715 100.281 28.2337 100.256 28.3582L99.1504 34.0511H99.1527ZM100.475 27.1979C100.465 27.3224 100.395 27.3847 100.256 27.3847H99.6119C99.4919 27.3847 99.4356 27.3224 99.4446 27.1979L99.6382 26.2483C99.6644 26.1238 99.7417 26.0615 99.8693 26.0615H100.512C100.64 26.0615 100.692 26.1238 100.665 26.2483L100.473 27.1979H100.475Z" fill="#1D2D5A"/>
<path d="M102.007 34.0521C101.986 34.176 101.928 34.2379 101.832 34.2379H101.321C101.213 34.2379 101.167 34.176 101.188 34.0521L102.404 26.2364C102.424 26.1214 102.483 26.0615 102.578 26.0615H103.089C103.198 26.0615 103.243 26.1194 103.222 26.2364L102.007 34.0521Z" fill="#1D2D5A"/>
<path d="M104.775 34.0511C104.749 34.1756 104.676 34.2379 104.556 34.2379H103.912C103.775 34.2379 103.719 34.1756 103.745 34.0511L104.85 28.3582C104.876 28.2337 104.953 28.1715 105.081 28.1715H105.724C105.854 28.1715 105.903 28.2337 105.877 28.3582L104.772 34.0511H104.775ZM106.096 27.1979C106.087 27.3224 106.016 27.3847 105.877 27.3847H105.234C105.114 27.3847 105.057 27.3224 105.067 27.1979L105.26 26.2483C105.286 26.1238 105.364 26.0615 105.491 26.0615H106.134C106.261 26.0615 106.313 26.1238 106.287 26.2483L106.094 27.1979H106.096Z" fill="#1D2D5A"/>
<path d="M111.196 33.951C111.173 34.0733 111.103 34.1344 110.989 34.1344H110.468C110.345 34.1344 110.295 34.078 110.318 33.9618L110.468 33.1456C109.921 33.8731 109.151 34.2379 108.155 34.2379C107.57 34.2379 107.111 34.0968 106.785 33.812C106.458 33.5271 106.292 33.1684 106.292 32.7317C106.292 31.6515 107.037 30.979 108.525 30.7191C108.949 30.6499 109.739 30.5968 110.897 30.5592L110.954 30.2361C110.986 30.0379 111.001 29.9028 111.001 29.8337C111.001 29.5045 110.893 29.2592 110.677 29.1034C110.46 28.9475 110.118 28.8669 109.647 28.8669C109.03 28.8669 108.391 28.9979 107.727 29.2572C107.612 29.2955 107.547 29.2572 107.53 29.1437L107.459 28.6607C107.445 28.576 107.492 28.5109 107.598 28.4645C108.262 28.1817 108.979 28.0379 109.749 28.0379C111.192 28.0379 111.914 28.5928 111.914 29.7067C111.914 29.8605 111.894 30.0446 111.856 30.2595L111.196 33.951ZM110.77 31.2827C109.535 31.3526 108.726 31.4365 108.341 31.536C107.6 31.7422 107.226 32.1224 107.218 32.6746C107.218 32.9131 107.316 33.1052 107.506 33.255C107.699 33.4048 107.978 33.4788 108.341 33.4788C108.987 33.4788 109.518 33.3202 109.932 33.0018C110.345 32.6834 110.593 32.2823 110.679 31.7993L110.772 31.2827H110.77ZM110.26 26.1986C110.345 26.1059 110.439 26.0615 110.539 26.0615H111.373C111.434 26.0615 111.468 26.0871 111.477 26.1355C111.485 26.1858 111.462 26.2282 111.406 26.2685L110.157 27.2681C110.072 27.344 109.976 27.3823 109.868 27.3823H109.52C109.467 27.3823 109.431 27.3628 109.416 27.3252C109.401 27.2869 109.412 27.2493 109.45 27.2089L110.26 26.1966V26.1986Z" fill="#1D2D5A"/>
<path d="M114.234 28.1306C114.359 28.1306 114.41 28.1891 114.387 28.3076L114.187 29.4627C114.374 29.1252 114.663 28.8138 115.051 28.5308C115.441 28.2477 115.889 28.1064 116.395 28.1064C116.49 28.1064 116.528 28.1547 116.511 28.2477L116.382 28.9895C116.358 29.0907 116.3 29.1431 116.206 29.1431C116.191 29.1431 116.153 29.1383 116.095 29.1321C116.037 29.1231 115.979 29.121 115.926 29.121C115.458 29.121 115.019 29.3483 114.612 29.805C114.202 30.261 113.952 30.7714 113.858 31.3382L113.377 34.0507C113.354 34.176 113.283 34.2387 113.167 34.2387H112.595C112.462 34.2387 112.408 34.176 112.432 34.0507L113.437 28.3186C113.461 28.1932 113.533 28.1306 113.66 28.1306H114.232H114.234Z" fill="#1D2D5A"/>
<path d="M118.061 34.0511C118.035 34.1756 117.962 34.2379 117.842 34.2379H117.199C117.062 34.2379 117.005 34.1756 117.031 34.0511L118.137 28.3582C118.162 28.2337 118.24 28.1715 118.367 28.1715H119.011C119.14 28.1715 119.189 28.2337 119.164 28.3582L118.059 34.0511H118.061ZM119.383 27.1979C119.373 27.3224 119.303 27.3847 119.164 27.3847H118.52C118.4 27.3847 118.344 27.3224 118.354 27.1979L118.546 26.2483C118.573 26.1238 118.65 26.0615 118.777 26.0615H119.421C119.548 26.0615 119.6 26.1238 119.574 26.2483L119.381 27.1979H119.383Z" fill="#1D2D5A"/>
<path d="M120.725 33.6365C120.303 33.2345 120.09 32.664 120.09 31.9224C120.09 31.6956 120.113 31.4455 120.158 31.1729C120.329 30.1872 120.691 29.4311 121.246 28.9024C121.803 28.3731 122.502 28.1064 123.345 28.1064C124.079 28.1064 124.656 28.3068 125.078 28.7087C125.5 29.1107 125.712 29.6811 125.712 30.4227C125.712 30.6496 125.689 30.8996 125.644 31.1729C125.473 32.1559 125.11 32.9141 124.556 33.4427C124 33.9721 123.304 34.2387 122.467 34.2387C121.727 34.2387 121.144 34.0384 120.722 33.6365H120.725ZM123.957 32.8657C124.342 32.4869 124.597 31.9225 124.723 31.1749C124.768 30.9249 124.79 30.698 124.79 30.4937C124.79 29.971 124.66 29.577 124.401 29.3123C124.142 29.0483 123.771 28.915 123.29 28.915C122.705 28.915 122.224 29.1041 121.845 29.4835C121.466 29.8622 121.211 30.4267 121.079 31.1749C121.034 31.4243 121.011 31.6518 121.011 31.8561C121.011 32.3788 121.142 32.7721 121.401 33.0368C121.66 33.3015 122.03 33.4348 122.512 33.4348C123.088 33.4348 123.571 33.2451 123.957 32.8657Z" fill="#1D2D5A"/>
<path d="M129.648 33.8017C129.179 34.0935 128.573 34.2387 127.832 34.2387C127.01 34.2387 126.344 34.1326 125.828 33.9204C125.727 33.8826 125.69 33.8269 125.723 33.75L125.97 33.2725C126.017 33.1604 126.09 33.1246 126.194 33.171C126.677 33.36 127.21 33.4542 127.788 33.4542C128.874 33.4542 129.418 33.1246 129.418 32.4667C129.418 32.2313 129.312 32.0443 129.102 31.9044C128.891 31.7651 128.547 31.6066 128.07 31.4342C127.827 31.3506 127.632 31.2717 127.479 31.1941C127.326 31.1192 127.165 31.0217 126.993 30.905C126.821 30.7883 126.695 30.6444 126.612 30.4799C126.531 30.3155 126.49 30.1198 126.49 29.901C126.49 29.2955 126.705 28.8452 127.135 28.5495C127.565 28.2544 128.13 28.1064 128.835 28.1064C129.639 28.1064 130.269 28.2166 130.722 28.4354C130.817 28.4725 130.843 28.5329 130.804 28.6164L130.57 29.0601C130.516 29.1662 130.445 29.1994 130.359 29.1622C129.915 28.9805 129.429 28.889 128.906 28.889C127.93 28.889 127.44 29.1894 127.44 29.7869C127.44 29.8386 127.447 29.891 127.457 29.9408C127.468 29.9905 127.489 30.0369 127.522 30.0761C127.554 30.1178 127.58 30.1556 127.604 30.1908C127.627 30.2239 127.67 30.2617 127.732 30.2989C127.795 30.3367 127.847 30.3699 127.885 30.3951C127.924 30.4216 127.986 30.4534 128.072 30.4905C128.158 30.5283 128.224 30.5595 128.272 30.5821C128.32 30.6053 128.399 30.6384 128.513 30.6842C128.627 30.7299 128.71 30.7631 128.765 30.7863C129.295 31.0131 129.695 31.2446 129.959 31.48C130.226 31.7154 130.357 32.0251 130.357 32.4104C130.357 33.0457 130.123 33.5099 129.654 33.8017H129.648Z" fill="#1D2D5A"/>
</svg>
