<svg width="30" height="30" viewBox="0 0 30 30" fill="none" xmlns="http://www.w3.org/2000/svg">
<rect width="30" height="30" rx="15" fill="#004FBE"/>
<path d="M19.4 10.6H19.408M11 7H19C21.2091 7 23 8.79086 23 11V19C23 21.2091 21.2091 23 19 23H11C8.79086 23 7 21.2091 7 19V11C7 8.79086 8.79086 7 11 7ZM18.2 14.496C18.2987 15.1618 18.185 15.8418 17.875 16.4392C17.565 17.0367 17.0745 17.5211 16.4733 17.8237C15.8721 18.1263 15.1908 18.2317 14.5262 18.1247C13.8617 18.0178 13.2478 17.7041 12.7719 17.2281C12.2959 16.7522 11.9822 16.1383 11.8753 15.4738C11.7683 14.8092 11.8737 14.1279 12.1763 13.5267C12.4789 12.9255 12.9633 12.435 13.5608 12.125C14.1582 11.815 14.8382 11.7013 15.504 11.8C16.1831 11.9007 16.8119 12.2172 17.2974 12.7026C17.7828 13.1881 18.0993 13.8169 18.2 14.496Z" stroke="white" stroke-width="1.5" stroke-linecap="round" stroke-linejoin="round"/>
</svg>
