<svg width="98" height="37" viewBox="0 0 98 37" fill="none" xmlns="http://www.w3.org/2000/svg">
<path d="M94.7274 30.41C94.0783 30.41 93.5072 30.278 93.017 30.0114C92.5268 29.7447 92.1443 29.3596 91.8696 28.8505C91.5949 28.3441 91.4575 27.7408 91.4575 27.0405C91.4575 26.3402 91.5949 25.718 91.8696 25.217C92.1443 24.7187 92.5268 24.3362 93.017 24.0695C93.5072 23.8029 94.0783 23.6709 94.7274 23.6709C95.7105 23.6709 96.4997 23.9672 97.1004 24.5571C97.701 25.1469 98 25.9765 98 27.0405C98 28.1044 97.701 28.934 97.1004 29.5239C96.5024 30.1137 95.7105 30.41 94.7274 30.41ZM94.7274 29.5373C95.4924 29.5373 96.0741 29.3299 96.4755 28.9124C96.8741 28.4976 97.0735 27.8728 97.0735 27.0405C97.0735 26.2082 96.8741 25.5833 96.4755 25.1685C96.0768 24.7537 95.4924 24.5436 94.7274 24.5436C93.9624 24.5436 93.378 24.751 92.9793 25.1685C92.5807 25.586 92.3814 26.2082 92.3814 27.0405C92.3814 27.8728 92.5807 28.4976 92.9793 28.9124C93.378 29.3299 93.9624 29.5373 94.7274 29.5373ZM94.3503 28.5138H93.5019V25.4432H94.3503V28.5138ZM96.3004 28.5138H95.3523L94.9779 27.6653C94.9294 27.5495 94.8621 27.4741 94.7786 27.4418C94.6951 27.4095 94.5712 27.3906 94.4042 27.3906H93.8062V26.8169H95.0048C95.2715 26.8169 95.4035 26.7092 95.4035 26.491C95.4035 26.2728 95.2688 26.1651 95.0048 26.1651H93.8062V25.4405H95.0533C95.4035 25.4405 95.6809 25.524 95.8883 25.691C96.0957 25.858 96.2008 26.0897 96.2008 26.3913C96.2008 26.6257 96.1253 26.8196 95.9772 26.9785C95.8263 27.1374 95.619 27.2317 95.3523 27.2667C95.5031 27.299 95.6109 27.3637 95.6782 27.4526C95.7455 27.5441 95.8183 27.6573 95.9018 27.7893L96.3004 28.5138Z" fill="#234248"/>
<path d="M27.0323 20.7423C27.0323 21.5719 26.8734 22.3153 26.5555 22.9725C26.2377 23.6297 25.7933 24.1415 25.2196 24.5078C24.6458 24.8741 23.9698 25.0572 23.1886 25.0572C22.0924 25.0572 21.2197 24.7152 20.5733 24.0337C19.9268 23.3523 19.6036 22.4257 19.6036 21.254V8.6377H13.826V22.4984C13.826 24.058 14.1493 25.4316 14.7957 26.6114C15.4421 27.7938 16.3364 28.7016 17.4838 29.3372C18.6285 29.9702 19.9457 30.288 21.4325 30.288C23.1159 30.288 24.565 29.7709 25.7852 28.7339C26.3912 28.2167 26.9137 27.5999 27.3528 26.8807L27.6868 29.849H32.8071V8.6377H27.0296V20.7423H27.0323Z" fill="#234248"/>
<path d="M53.0269 9.27931C52.5447 9.63216 52.1461 10.2166 51.8283 11.0247C51.1899 10.284 50.4034 9.66986 49.4607 9.18773C48.1813 8.53051 46.7483 8.19922 45.1645 8.19922C43.5808 8.19922 42.067 8.52243 40.7769 9.16887C39.484 9.81531 38.4793 10.7042 37.7601 11.8381C37.041 12.9721 36.68 14.2461 36.68 15.6602C36.68 17.0743 37.0383 18.3537 37.7601 19.5011C37.919 19.7543 38.0941 19.994 38.28 20.2203C37.9352 20.5301 37.6443 20.8021 37.4126 21.0364C37.0221 21.427 36.7123 21.8768 36.4807 22.3886C36.2491 22.9003 36.1332 23.5225 36.1332 24.2525C36.1332 25.548 36.5049 26.6443 37.2457 27.5358C36.9844 27.7648 36.7474 28.0126 36.5346 28.2765C35.7292 29.2758 35.3279 30.3963 35.3279 31.6407C35.3279 33.3242 35.942 34.6036 37.1756 35.4816C38.4065 36.3597 40.1681 36.7988 42.4603 36.7988H48.386C50.6782 36.7988 52.4504 36.3113 53.7083 35.3362C54.9635 34.3612 55.5911 32.9336 55.5911 31.0562C55.5911 29.1789 54.9931 27.7782 53.7999 26.7763C52.604 25.777 50.8748 25.276 48.6068 25.276H42.6084C42.0966 25.276 41.6953 25.1413 41.4017 24.8747C41.1081 24.6053 40.9627 24.2417 40.9627 23.7784C40.9627 23.3394 41.092 22.938 41.3479 22.5717C41.3694 22.5394 41.3963 22.5044 41.4206 22.4721C42.5518 22.9273 43.7989 23.1562 45.1699 23.1562C46.7537 23.1562 48.1866 22.833 49.466 22.1865C50.7455 21.5401 51.7447 20.6459 52.4639 19.4984C53.0726 18.5261 53.4228 17.4568 53.5144 16.2932C53.6194 15.7545 53.7433 15.3101 53.8888 14.9653C54.0962 14.4778 54.3467 14.1438 54.6376 13.9606C54.9312 13.7774 55.3083 13.6859 55.7715 13.6859H56.4907V8.63826H55.4429C54.4194 8.63826 53.6141 8.85105 53.0296 9.27931H53.0269ZM48.1274 29.5209C48.7361 29.5209 49.2237 29.6475 49.59 29.9061C49.9563 30.162 50.1394 30.5094 50.1394 30.9485C50.1394 31.4118 49.932 31.7943 49.5172 32.1013C49.1024 32.4057 48.5664 32.5592 47.9092 32.5592H43.8124C42.7889 32.5592 42.0266 32.4138 41.5256 32.1202C41.0246 31.8266 40.7769 31.3633 40.7769 30.7303C40.7769 30.2913 40.8927 29.8819 41.1243 29.5048C41.1351 29.4886 41.1458 29.4725 41.1539 29.459C41.531 29.5021 41.9297 29.5236 42.3472 29.5236H48.1247L48.1274 29.5209ZM47.9254 17.3059C47.6453 17.7935 47.2682 18.1705 46.7914 18.4399C46.3147 18.7092 45.7733 18.8412 45.1645 18.8412C44.5558 18.8412 44.0063 18.7065 43.5188 18.4399C43.0313 18.1705 42.6461 17.7935 42.366 17.3059C42.0859 16.8184 41.9458 16.2689 41.9458 15.6602C41.9458 15.0515 42.0859 14.5451 42.366 14.0683C42.6461 13.5943 43.0286 13.2226 43.5188 12.9532C44.0063 12.6839 44.5558 12.5519 45.1645 12.5519C45.7733 12.5519 46.3174 12.6812 46.7914 12.9371C47.2682 13.193 47.6453 13.5647 47.9254 14.0522C48.2055 14.5397 48.3456 15.0757 48.3456 15.6602C48.3456 16.2447 48.2055 16.8184 47.9254 17.3059Z" fill="#234248"/>
<path d="M72.248 20.7423C72.248 21.5719 72.0891 22.3153 71.7712 22.9725C71.4534 23.6297 71.009 24.1415 70.4353 24.5078C69.8615 24.8741 69.1855 25.0572 68.4043 25.0572C67.3081 25.0572 66.4354 24.7152 65.789 24.0337C65.1425 23.3523 64.8193 22.4257 64.8193 21.254V8.6377H59.0417V22.4984C59.0417 24.058 59.365 25.4316 60.0114 26.6114C60.6578 27.7938 61.5521 28.7016 62.6995 29.3372C63.8442 29.9702 65.1614 30.288 66.6482 30.288C68.3316 30.288 69.7807 29.7709 71.0009 28.7339C71.6069 28.2167 72.1294 27.5999 72.5685 26.8807L72.9025 29.849H78.0228V8.6377H72.2453V20.7423H72.248Z" fill="#234248"/>
<path d="M9.25485 24.0722C8.20439 24.0614 7.36399 23.714 6.7391 23.0514C6.13845 22.4184 5.77754 21.5726 5.77754 20.5168C5.77754 15.4665 5.77754 1.76465 5.77754 1.76465H0V22.0601C0 23.6197 0.323213 24.9907 0.969653 26.1731C1.61609 27.3556 2.51033 28.2633 3.65776 28.8989C4.80249 29.5319 6.11962 29.8498 7.60643 29.8498H11.7409V24.0722C11.7409 24.0722 9.87705 24.0776 9.25485 24.0722Z" fill="#234248"/>
<path d="M87.5087 8.6377H81.7311V29.849H87.5087V8.6377Z" fill="#234248"/>
<path d="M84.6404 6.97885C85.6343 6.97885 86.4827 6.65024 87.1803 5.99034C87.8779 5.33312 88.2281 4.49276 88.2281 3.46923C88.2281 2.4457 87.886 1.64842 87.1992 0.988509C86.5123 0.331296 85.6585 0 84.6377 0C83.9912 0 83.3932 0.148132 82.8438 0.444417C82.2916 0.740702 81.8499 1.1582 81.5132 1.6942C81.1765 2.2329 81.0095 2.82279 81.0095 3.46923C81.0095 4.49006 81.3516 5.33043 82.0384 5.99034C82.7253 6.65024 83.5899 6.97885 84.6404 6.97885Z" fill="#234248"/>
</svg>
