<svg width="184" height="38" viewBox="0 0 184 38" fill="none" xmlns="http://www.w3.org/2000/svg">
<path d="M59.0571 7.70508C61.1083 7.70508 62.809 8.40083 64.1981 9.77946C65.5742 11.1581 66.2623 12.9877 66.2623 15.2553C66.2623 17.523 65.5742 19.3525 64.1981 20.7312C62.822 22.1098 61.1083 22.8055 59.0571 22.8055C57.3304 22.8055 55.9672 22.2902 54.9546 21.2594V26.3616C54.9546 26.7482 54.8118 27.0831 54.5392 27.3537C54.2665 27.6243 53.929 27.766 53.5395 27.766H49.8136V9.65062C49.8136 9.19966 49.9823 8.80025 50.3199 8.46526C50.6574 8.13026 51.0599 7.97565 51.5402 7.97565H54.7079L52.1894 11.506C54.4613 8.96775 56.7462 7.70508 59.0441 7.70508H59.0571ZM55.7465 17.7935C56.3437 18.412 57.0967 18.7212 57.9925 18.7212C58.8883 18.7212 59.6283 18.412 60.1995 17.7935C60.7707 17.1751 61.0563 16.3376 61.0563 15.2553C61.0563 14.173 60.7707 13.3355 60.1995 12.7042C59.6283 12.0729 58.8883 11.7636 57.9925 11.7636C57.0967 11.7636 56.3567 12.0729 55.7725 12.7042C55.1883 13.3355 54.8897 14.1859 54.8897 15.2553C54.8897 16.3247 55.1753 17.1751 55.7465 17.7935Z" fill="#3B276C"/>
<path d="M71.5072 6.33916C70.5854 6.33916 69.8325 6.08148 69.2483 5.5661C68.664 5.05073 68.3654 4.40651 68.3654 3.63345C68.3654 2.86039 68.664 2.21617 69.2483 1.7008C69.8325 1.18542 70.5854 0.927734 71.5072 0.927734C72.1304 0.927734 72.6756 1.03081 73.156 1.24984C73.6363 1.46888 73.9998 1.7781 74.2595 2.17752C74.5061 2.57693 74.636 3.04077 74.636 3.56903C74.636 4.09729 74.5061 4.56112 74.2595 4.98631C74.0128 5.41149 73.6363 5.7336 73.156 5.9784C72.6756 6.2232 72.1174 6.33916 71.5072 6.33916ZM68.9237 20.6666V7.97548H72.377C72.8574 7.97548 73.2728 8.13009 73.5974 8.4522C73.9349 8.77431 74.0907 9.17372 74.0907 9.65044V22.5477H70.8191C70.2868 22.5477 69.8454 22.3673 69.469 22.0065C69.1054 21.6458 68.9237 21.1948 68.9237 20.6666Z" fill="#3B276C"/>
<path d="M85.9826 7.70508C88.0338 7.70508 89.7345 8.40083 91.1236 9.77946C92.4998 11.1581 93.1878 12.9877 93.1878 15.2553C93.1878 17.523 92.4998 19.3525 91.1236 20.7312C89.7475 22.1098 88.0338 22.8055 85.9826 22.8055C84.2559 22.8055 82.8928 22.2902 81.8801 21.2594V26.3616C81.8801 26.7482 81.7373 27.0831 81.4647 27.3537C81.1921 27.6243 80.8545 27.766 80.4651 27.766H76.7391V9.65062C76.7391 9.19966 76.9079 8.80025 77.2324 8.46526C77.57 8.13026 77.9724 7.97565 78.4528 7.97565H81.6205L79.1019 11.506C81.3738 8.96775 83.6587 7.70508 85.9566 7.70508H85.9826ZM82.6721 17.7935C83.2693 18.412 84.0223 18.7212 84.918 18.7212C85.8138 18.7212 86.5538 18.412 87.125 17.7935C87.6963 17.1751 87.9819 16.3376 87.9819 15.2553C87.9819 14.173 87.6963 13.3355 87.125 12.7042C86.5538 12.0729 85.8138 11.7636 84.918 11.7636C84.0223 11.7636 83.2822 12.0729 82.698 12.7042C82.1138 13.3355 81.8152 14.1859 81.8152 15.2553C81.8152 16.3247 82.1008 17.1751 82.6721 17.7935Z" fill="#3B276C"/>
<path d="M111.22 15.2684C111.22 15.3328 111.194 15.758 111.156 16.531H100.471C100.536 16.7372 100.614 16.9305 100.718 17.1108C101.315 18.2962 102.444 18.8889 104.093 18.8889C105.352 18.8889 106.482 18.4637 107.468 17.6262L109.403 19.6104C109.637 19.8423 109.74 20.1129 109.714 20.4479C109.688 20.7829 109.546 21.0406 109.26 21.2467C107.923 22.2775 106.144 22.7928 103.911 22.7928C101.341 22.7928 99.2506 22.0842 97.6668 20.6669C96.0829 19.2497 95.291 17.433 95.291 15.2297C95.291 13.0265 96.0569 11.2356 97.5889 9.8183C99.1208 8.40102 101.042 7.69238 103.366 7.69238C105.69 7.69238 107.494 8.37525 108.987 9.72811C110.48 11.081 111.233 12.9234 111.233 15.2555L111.22 15.2684ZM100.575 13.1811C100.549 13.2455 100.133 13.3615 99.3155 13.5032C98.4976 13.6578 98.0952 13.7738 98.0952 13.864H106.404C106.261 13.0909 105.937 12.4725 105.404 12.0344C104.872 11.5835 104.21 11.3644 103.405 11.3644C102.029 11.3644 101.081 11.97 100.575 13.1811Z" fill="#3B276C"/>
<path d="M116.465 6.33916C115.544 6.33916 114.791 6.08148 114.206 5.5661C113.622 5.05073 113.324 4.40651 113.324 3.63345C113.324 2.86039 113.622 2.21617 114.206 1.7008C114.791 1.18542 115.544 0.927734 116.465 0.927734C117.089 0.927734 117.634 1.03081 118.114 1.24984C118.594 1.46888 118.958 1.7781 119.218 2.17752C119.464 2.57693 119.594 3.04077 119.594 3.56903C119.594 4.09729 119.464 4.56112 119.218 4.98631C118.971 5.41149 118.594 5.7336 118.114 5.9784C117.634 6.2232 117.076 6.33916 116.465 6.33916ZM113.882 20.6666V7.97548H117.335C117.816 7.97548 118.231 8.13009 118.556 8.4522C118.893 8.77431 119.062 9.17372 119.062 9.65044V22.5477H115.79C115.258 22.5477 114.817 22.3673 114.44 22.0065C114.077 21.6458 113.882 21.1948 113.882 20.6666Z" fill="#3B276C"/>
<path d="M140.833 7.70527C142.002 7.70527 143.027 7.9243 143.897 8.37525C144.767 8.82621 145.468 9.53485 145.987 10.5269C146.507 11.519 146.766 12.7431 146.766 14.199V22.548H141.625V15.0236C141.625 13.0394 140.872 12.0473 139.379 12.0473C138.873 12.0473 138.432 12.1633 138.055 12.3952C137.679 12.6271 137.38 12.9879 137.159 13.4775C136.939 13.9671 136.835 14.5726 136.835 15.307V21.0535C136.835 21.4658 136.679 21.8136 136.38 22.11C136.082 22.4063 135.731 22.5609 135.316 22.5609H131.655V15.0365C131.655 13.0523 130.915 12.0602 129.448 12.0602C128.643 12.0602 128.007 12.3308 127.539 12.8848C127.072 13.4259 126.838 14.2376 126.838 15.3199V21.4142C126.838 21.7363 126.721 22.0069 126.488 22.2388C126.254 22.4707 125.981 22.5867 125.657 22.5867H121.697V9.27716C121.697 8.9164 121.827 8.60717 122.1 8.34949C122.359 8.10468 122.684 7.97584 123.047 7.97584H126.605L124.956 10.7846C126.799 8.73602 128.812 7.70527 131.019 7.70527C132.512 7.70527 133.745 8.0918 134.706 8.86486C134.251 9.75388 133.94 10.5398 133.771 11.2227C135.225 8.87774 137.575 7.69238 140.833 7.69238V7.70527Z" fill="#3B276C"/>
<path d="M157.178 22.7928C154.764 22.7928 152.777 22.0842 151.219 20.654C149.661 19.2239 148.87 17.4201 148.87 15.2297C148.87 13.0394 149.648 11.2356 151.219 9.8183C152.777 8.40102 154.777 7.69238 157.178 7.69238C159.58 7.69238 161.579 8.40102 163.124 9.8183C164.669 11.2356 165.448 13.0394 165.448 15.2297C165.448 17.4201 164.669 19.2625 163.124 20.6669C161.579 22.0842 159.593 22.7928 157.178 22.7928ZM157.178 18.7214C158.074 18.7214 158.814 18.4122 159.385 17.7937C159.957 17.1753 160.242 16.3249 160.242 15.2297C160.242 14.1346 159.957 13.31 159.385 12.6915C158.814 12.0731 158.074 11.7638 157.178 11.7638C156.283 11.7638 155.543 12.0731 154.958 12.6915C154.374 13.31 154.075 14.1474 154.075 15.2297C154.075 16.312 154.374 17.1495 154.958 17.7808C155.543 18.4122 156.283 18.7214 157.178 18.7214Z" fill="#3B276C"/>
<path d="M176.795 7.70531C177.781 7.70531 178.716 7.88569 179.599 8.23357C180.482 8.58145 181.248 9.08394 181.897 9.72815C182.546 10.3724 183.052 11.1583 183.429 12.1118C183.805 13.0652 184 14.096 184 15.2427C184 17.4974 183.312 19.327 181.936 20.7185C180.56 22.11 178.846 22.8058 176.795 22.8058C174.406 22.8058 172.433 21.775 170.862 19.7264L172.446 22.561H168.408C168.174 22.561 167.98 22.4708 167.811 22.3033C167.642 22.1358 167.551 21.9296 167.551 21.7106V2.56445H170.823C171.173 2.56445 171.485 2.65464 171.77 2.82214C172.056 2.98964 172.277 3.22156 172.446 3.50501C172.601 3.78847 172.692 4.09769 172.692 4.40692V9.1999C173.679 8.19492 175.042 7.69243 176.795 7.69243V7.70531ZM178.794 15.2298C178.794 14.1604 178.508 13.31 177.937 12.6916C177.366 12.0731 176.626 11.7639 175.73 11.7639C174.834 11.7639 174.094 12.0731 173.51 12.6916C172.926 13.31 172.627 14.1475 172.627 15.2298C172.627 16.3121 172.926 17.1495 173.51 17.7809C174.094 18.4122 174.834 18.7214 175.73 18.7214C176.626 18.7214 177.366 18.4122 177.937 17.7809C178.508 17.1495 178.794 16.2992 178.794 15.2298Z" fill="#3B276C"/>
<path d="M28.4315 3.91684C25.835 1.54612 22.3817 0.0644218 18.5779 0C18.487 0 18.4091 0 18.3182 0H0C0 1.43016 0.389473 2.77014 1.05158 3.91684C1.99929 5.55316 3.53122 6.81582 5.36174 7.43427C4.10245 9.61173 3.37543 12.1242 3.37543 14.817V37.6996H4.02455C5.97192 37.6996 7.76349 37.0039 9.13963 35.8314C10.1393 34.981 10.9312 33.8987 11.4116 32.6618C11.7491 31.7857 11.9309 30.8451 11.9309 29.853V14.8943C11.9309 14.8943 11.9309 14.8428 11.9309 14.817C11.9309 11.3253 14.787 8.49079 18.3052 8.49079C18.3961 8.49079 18.474 8.49079 18.5649 8.49079C21.9663 8.63252 24.6666 11.4027 24.6666 14.8041C24.6666 18.2056 21.9533 20.9886 18.5649 21.1175C18.474 21.1175 18.3961 21.1175 18.3052 21.1175C17.1368 21.1175 16.0463 20.8082 15.0986 20.2542V29.2604C16.1372 29.4794 17.2017 29.6082 18.3052 29.6082C18.3961 29.6082 18.474 29.6082 18.5649 29.6082C26.6919 29.4665 33.222 22.8955 33.222 14.8041C33.222 10.5007 31.3655 6.62256 28.4185 3.91684H28.4315Z" fill="#3B276C"/>
</svg>
