<svg width="193" height="24" viewBox="0 0 193 24" fill="none" xmlns="http://www.w3.org/2000/svg">
<g clip-path="url(#clip0_105_1346)">
<path d="M18.9996 18.303C13.4293 18.9442 8.80683 14.3837 8.66575 9.00405C8.70724 7.41708 9.1421 6.03851 9.87241 4.73047C4.50964 4.84909 0.137762 9.07137 0 14.3019C0.00165979 16.5782 0.878027 18.7983 2.45814 20.4847L1.90709 21.2092C1.28633 22.0043 0.283823 23.2514 1.49049 23.7227C1.95025 23.9055 2.59757 23.9135 3.04239 23.9135H10.3355C14.2625 23.9135 17.7166 21.9899 19.4627 18.303H19.0012H18.9996Z" fill="#3852FF"/>
<path d="M26.8753 14.4587C28.3342 12.9022 29.1409 10.8792 29.1442 8.77929C29.0131 3.81643 24.7491 -0.107699 19.6104 0.0013044C14.4717 -0.109302 10.2077 3.81643 10.0782 8.77929C10.2094 13.7422 14.4717 17.6679 19.6104 17.5573H26.3375C26.7491 17.5573 27.345 17.5749 27.7683 17.4066C28.882 16.9722 27.9558 15.8469 27.3832 15.1143L26.8736 14.4587H26.8753Z" fill="#00B6CF"/>
<path d="M46.5155 16.9631H44.3179V23.4632H38.2581V2.21875H47.7919C52.5339 2.21875 55.9713 5.2965 55.9713 9.73678C55.9713 12.3432 54.6518 14.48 52.4791 15.7368L56.8477 23.4632H50.084L46.5155 16.9631ZM44.3196 12.0339H47.0881C48.7828 12.0339 49.7571 11.048 49.7571 9.72075C49.7571 8.39348 48.7811 7.42046 47.0881 7.42046H44.3196V12.0339Z" fill="#001847"/>
<path d="M76.3219 15.1147C76.3219 15.6084 76.2771 16.1022 76.2008 16.6087H63.6013C63.9831 18.489 65.2196 19.4604 67.0653 19.4604C68.4313 19.4604 69.5716 18.8834 70.1326 17.9232H75.9485C74.7534 21.6629 71.3227 24.0001 67.0653 24.0001C61.7706 24.0001 57.8485 20.2635 57.8485 15.2558C57.8485 10.248 61.7391 6.53711 67.0653 6.53711C72.3916 6.53711 76.3219 10.3057 76.3219 15.1131V15.1147ZM63.7042 13.4829H70.5641C70.0513 11.8446 68.8297 10.9614 67.0653 10.9614C65.3624 10.9614 64.1773 11.8558 63.7042 13.4829Z" fill="#001847"/>
<path d="M97.0427 7.05782V23.4452H92.5248L92.0235 22.2863C90.6343 23.3731 88.8732 23.9998 86.9031 23.9998C81.7146 23.9998 78.0049 20.3434 78.0049 15.2507C78.0049 10.158 81.7146 6.5625 86.9031 6.5625C88.9014 6.5625 90.6874 7.2069 92.0882 8.32419L92.6858 7.05622H97.0427V7.05782ZM91.4824 15.2651C91.4824 13.138 89.8741 11.5398 87.6832 11.5398C85.4922 11.5398 83.8856 13.138 83.8856 15.2651C83.8856 17.3923 85.4956 19.0033 87.6832 19.0033C89.8724 19.0033 91.4824 17.4067 91.4824 15.2651Z" fill="#001847"/>
<path d="M100.726 1.15723H106.57V23.4629H100.726V1.15723Z" fill="#001847"/>
<path d="M136.277 13.1842V23.4626H130.433V13.8815C130.433 12.1695 129.78 11.344 128.539 11.344C126.932 11.344 126.109 12.4132 126.109 14.4762V23.4626H120.416V13.8815C120.416 12.2208 119.769 11.344 118.545 11.344C116.96 11.344 116.092 12.4388 116.092 14.4762V23.4626H110.248V7.0736H114.358L115.189 8.83368C116.416 7.45351 118.195 6.58789 120.15 6.58789C122.218 6.58789 123.961 7.48557 125.017 9.00039C126.237 7.51763 128.116 6.58789 130.228 6.58789C133.863 6.58789 136.278 9.3242 136.278 13.1826L136.277 13.1842Z" fill="#001847"/>
<path d="M157.816 7.05782V23.4452H153.298L152.798 22.2863C151.409 23.3731 149.65 23.9998 147.678 23.9998C142.489 23.9998 138.78 20.3434 138.78 15.2507C138.78 10.158 142.488 6.5625 147.678 6.5625C149.676 6.5625 151.462 7.2069 152.863 8.32419L153.461 7.05622H157.817L157.816 7.05782ZM152.257 15.2651C152.257 13.138 150.647 11.5398 148.458 11.5398C146.269 11.5398 144.66 13.138 144.66 15.2651C144.66 17.3923 146.269 19.0033 148.458 19.0033C150.647 19.0033 152.257 17.4067 152.257 15.2651Z" fill="#001847"/>
<path d="M172.943 18.5193V23.4629H168.921C165.169 23.4629 162.888 21.2476 162.888 17.6056V11.4228H159.783V10.1036L167.386 2.28418H168.586V7.07552H172.849V11.4228H168.734V16.6374C168.734 17.8108 169.468 18.5193 170.701 18.5193H172.945H172.943Z" fill="#001847"/>
<path d="M193 15.1147C193 15.6084 192.955 16.1022 192.879 16.6087H180.279C180.663 18.489 181.898 19.4604 183.743 19.4604C185.108 19.4604 186.25 18.8834 186.811 17.9232H192.627C191.431 21.6629 187.999 24.0001 183.742 24.0001C178.447 24.0001 174.525 20.2635 174.525 15.2558C174.525 10.248 178.415 6.53711 183.742 6.53711C189.068 6.53711 192.998 10.3057 192.998 15.1131L193 15.1147ZM180.382 13.4829H187.242C186.729 11.8446 185.508 10.9614 183.743 10.9614C182.039 10.9614 180.855 11.8558 180.382 13.4829Z" fill="#001847"/>
</g>
<defs>
<clipPath id="clip0_105_1346">
<rect width="193" height="24" fill="white"/>
</clipPath>
</defs>
</svg>
