<svg width="126" height="42" viewBox="0 0 126 42" fill="none" xmlns="http://www.w3.org/2000/svg">
<g clip-path="url(#clip0_105_1463)">
<path d="M124.187 15.8801V33.8242C124.187 34.1031 123.959 34.2968 123.708 34.2968H118.919C118.635 34.2968 118.439 34.0721 118.439 33.8242V32.5422C117.165 33.9637 115.293 34.8584 112.718 34.8584C107.705 34.8584 103.541 30.505 103.541 24.8696C103.541 19.2342 107.677 14.8809 112.718 14.8809C117.759 14.8809 117.165 15.7446 118.439 17.197V15.915C118.439 15.6361 118.667 15.4425 118.919 15.4425H123.708C123.963 15.4153 124.187 15.609 124.187 15.8879V15.8801ZM118.435 24.8348C118.435 21.988 116.508 20.2296 113.874 20.2296C111.239 20.2296 109.313 22.0151 109.313 24.8348C109.313 27.6544 111.239 29.4399 113.874 29.4399C116.508 29.467 118.435 27.6815 118.435 24.8348Z" fill="#0097FF"/>
<path d="M0.271176 28.1571L4.74576 25.5892C5.00134 25.4498 5.31196 25.535 5.42599 25.7829C6.41685 27.7349 8.06041 28.9937 10.8639 28.9937C13.6674 28.9937 14.5167 27.8511 14.5167 26.817C14.5167 25.1709 12.9872 24.528 8.93724 23.4397C4.91483 22.3513 1.00645 20.4264 1.00645 15.3487C1.00645 10.2711 5.39847 7.25781 10.0736 7.25781C14.7487 7.25781 17.7213 9.20986 19.7344 12.839C19.8485 13.0636 19.762 13.3425 19.5378 13.4819L15.1733 15.9917C14.9453 16.1311 14.6347 16.0459 14.4931 15.798C13.5848 14.1519 12.3384 13.1759 10.0461 13.1759C7.75372 13.1759 7.15606 14.1248 7.15606 15.1861C7.15606 16.2473 7.80876 17.2504 12.0278 18.4782C16.1092 19.706 20.6978 21.1003 20.6978 26.7086C20.6978 32.3168 16.5338 34.8847 10.6673 34.8847C4.8008 34.8847 1.63164 32.3982 0.0155974 28.7148C-0.0394502 28.5483 0.0431212 28.2694 0.271176 28.1571Z" fill="#0097FF"/>
<path d="M40.4718 15.4033C40.8099 15.4033 41.038 15.7364 40.924 16.0463L34.5778 33.8238C32.482 39.6838 29.1949 42.1123 24.0676 42C23.812 42 23.5879 41.7753 23.5879 41.5274V37.147C23.5879 36.8952 23.7845 36.6744 24.0676 36.6744C26.3914 36.5892 27.5513 35.7526 28.3456 33.7154C28.4006 33.6031 28.4006 33.4636 28.3456 33.3513L21.0085 16.0772C20.867 15.7713 21.1226 15.4072 21.4607 15.4072H26.7295C26.9261 15.4072 27.1267 15.5466 27.1817 15.7132L31.3457 27.0149L34.8569 15.7403C34.912 15.5466 35.1125 15.4072 35.3366 15.4072H40.4639L40.4718 15.4033Z" fill="#0097FF"/>
<path d="M93.4473 24.8928C93.4473 30.5591 89.2834 34.9125 84.2386 34.9125C79.1939 34.9125 79.7641 34.0488 78.4862 32.5964V41.4426C78.4862 41.7486 78.2306 41.9732 77.9475 41.9732H73.2449C72.9342 41.9732 72.7062 41.7214 72.7062 41.4426V15.9343C72.7062 15.6283 72.9618 15.4037 73.2449 15.4037H77.92C78.2306 15.4037 78.4587 15.6554 78.4587 15.9343V17.1892C79.7326 15.7367 81.6317 14.873 84.2111 14.873C89.2834 14.873 93.4473 19.2535 93.4473 24.8928ZM87.6713 24.8928C87.6713 22.046 85.7446 20.2605 83.0826 20.2605C80.4207 20.2605 78.494 22.046 78.494 24.8928C78.494 27.7395 80.4207 29.525 83.0826 29.525C85.7446 29.525 87.6713 27.7666 87.6713 24.8928Z" fill="#0097FF"/>
<path d="M96.1131 6.6152H100.93C101.213 6.6152 101.409 6.83984 101.409 7.08772V33.8509C101.409 34.1298 101.181 34.3234 100.93 34.3234H96.1131C95.83 34.3234 95.6334 34.0988 95.6334 33.8509V7.11483C95.6059 6.83597 95.83 6.61133 96.1131 6.61133V6.6152Z" fill="#0097FF"/>
<path d="M62.4829 14.5938C60.0766 14.5938 57.4422 14.8184 55.657 16.8247C53.8719 14.7874 51.265 14.5938 48.8587 14.5938C44.4116 14.5938 41.5216 17.7193 41.5216 22.4639V33.6533C41.5216 33.9322 41.6632 34.3505 41.9463 34.3505H46.7629C47.046 34.3505 47.2426 33.9051 47.2426 33.6533V22.9635C47.2426 21.0657 48.1195 19.8379 49.9635 19.8379C51.8076 19.8379 52.9401 21.178 52.9401 23.4089V33.6494C52.9401 33.9283 53.2507 34.3466 53.5338 34.3466H57.8393C58.1224 34.3466 58.433 33.9012 58.433 33.6494V23.4089C58.433 21.178 59.4829 19.8379 61.4095 19.8379C63.3362 19.8379 64.1304 21.0657 64.1304 22.9635V33.6533C64.1304 33.9322 64.327 34.3505 64.6101 34.3505H69.4268C69.7099 34.3505 69.8515 33.9051 69.8515 33.6533V22.4639C69.7964 17.7193 66.9064 14.5938 62.4869 14.5938H62.4829Z" fill="#0097FF"/>
<path d="M111.664 11.8049C113.48 11.8049 114.951 10.3553 114.951 8.56702C114.951 6.77877 113.48 5.3291 111.664 5.3291C109.849 5.3291 108.377 6.77877 108.377 8.56702C108.377 10.3553 109.849 11.8049 111.664 11.8049Z" fill="#0097FF"/>
<path d="M121.325 9.21025C123.907 9.21025 126 7.14847 126 4.60513C126 2.06179 123.907 0 121.325 0C118.743 0 116.65 2.06179 116.65 4.60513C116.65 7.14847 118.743 9.21025 121.325 9.21025Z" fill="#0097FF"/>
</g>
<defs>
<clipPath id="clip0_105_1463">
<rect width="126" height="42" fill="white"/>
</clipPath>
</defs>
</svg>
