<svg width="135" height="51" viewBox="0 0 135 51" fill="none" xmlns="http://www.w3.org/2000/svg">
<path d="M24.9121 50.2044C18.0947 50.0674 11.7517 47.3973 6.66387 41.9863C3.31031 38.4231 1.17361 34.2171 0.383122 29.4157C-0.915187 21.5284 1.08258 14.5059 6.42433 8.48525C10.051 4.39272 14.6262 1.79827 20.0111 0.607372C22.7179 0.0071984 25.4534 -0.153478 28.2129 0.148972C35.0015 0.890919 40.6355 3.81618 45.0862 8.91057C48.1235 12.3887 50.0159 16.4246 50.7776 20.9613C52.3107 30.0821 48.7176 39.1697 41.3445 44.8407C37.9239 47.4729 34.0673 49.1411 29.7843 49.85C28.3854 50.0816 26.9721 50.1855 24.9121 50.2044ZM25.4486 47.5013C37.9862 47.4871 48.1379 37.4685 48.1427 25.1058C48.1475 12.7384 37.9718 2.69617 25.4295 2.70562C12.868 2.71507 2.72104 12.7243 2.72583 25.1105C2.73541 37.5063 12.8967 47.4966 25.4486 47.5013Z" fill="#99163A"/>
<path d="M25.4486 47.5017C12.8967 47.5017 2.73538 37.5067 2.73059 25.111C2.7258 12.7247 12.8727 2.71551 25.4342 2.70606C37.9766 2.69661 48.1474 12.7389 48.1474 25.1063C48.1379 37.4689 37.9861 47.4875 25.4486 47.5017ZM25.4151 44.2929C36.1513 44.2929 44.8753 35.7204 44.8849 25.1393C44.8945 14.5252 36.1944 5.92432 25.4342 5.91487C14.7172 5.91014 5.99313 14.4922 5.97876 25.0543C5.96439 35.6731 14.6645 44.2835 25.4151 44.2929Z" fill="#FCBF06"/>
<path d="M25.4151 44.2921C14.6645 44.2921 5.96441 35.677 5.97878 25.0535C5.99315 14.4914 14.7172 5.90934 25.4342 5.91406C36.1944 5.92352 44.8945 14.5197 44.8849 25.1385C44.8753 35.7148 36.1513 44.2968 25.4151 44.2921ZM25.7792 24.0658V18.3712C25.7792 17.8419 25.7025 17.7285 25.1947 17.5489C25.0797 17.5111 24.96 17.4686 24.8402 17.4639C24.1359 17.445 23.4317 17.4072 22.7274 17.4355C22.1573 17.4591 21.9705 17.6954 21.9705 18.1964C21.9897 21.9345 22.0088 25.6678 22.028 29.4059C22.028 30.0486 21.913 30.6724 21.6543 31.2631C21.1704 32.3737 20.3225 32.9833 19.0816 32.9833C18.4205 32.9833 17.7594 32.9408 17.103 32.8746C16.5329 32.8179 16.0059 32.6194 15.5604 32.2461C14.7507 31.5703 14.4441 30.6724 14.425 29.6611C14.4058 28.6923 14.4154 27.7188 14.4106 26.75C14.3962 23.9854 14.3771 21.2161 14.3675 18.4516C14.3675 17.7663 14.195 17.5064 13.5051 17.4544C12.7434 17.3977 11.9769 17.4166 11.2103 17.4308C10.9133 17.4308 10.6786 17.6293 10.5875 17.9128C10.5013 18.1775 10.4438 18.461 10.439 18.7398C10.4294 22.3929 10.4294 26.0412 10.439 29.6942C10.439 30.1053 10.4678 30.5212 10.5492 30.9229C11.0379 33.3141 12.4033 34.9776 14.7843 35.7385C16.6862 36.3434 18.6265 36.3292 20.5524 35.8519C22.1573 35.4549 23.5036 34.6326 24.4713 33.2858C25.3193 32.1138 25.8127 30.8236 25.7888 29.3492C25.7552 27.5912 25.7792 25.8285 25.7792 24.0658ZM29.0944 26.3483C29.0896 26.4287 29.0801 26.4948 29.0801 26.561V34.9871C29.0801 35.3462 29.3244 35.5683 29.722 35.5683C30.5125 35.5683 31.3078 35.5683 32.0983 35.5683C32.5294 35.5683 32.8552 35.247 32.8552 34.8264V29.3681C33.7655 29.3209 34.647 29.3114 35.5189 29.2216C36.8268 29.094 38.0868 28.7679 39.227 28.0921C40.348 27.4305 41.1577 26.509 41.4547 25.2331C41.6368 24.458 41.7661 23.6641 41.8092 22.8749C41.929 20.857 41.0954 19.2927 39.3372 18.2389C38.2209 17.5678 36.9849 17.3032 35.6962 17.2843C33.8757 17.2559 32.0551 17.2701 30.2394 17.2748C29.6214 17.2748 29.1328 17.6813 29.0801 18.2767C29.0274 18.8816 29.0561 19.4912 29.0513 20.1009C29.0513 20.2946 29.1663 20.3088 29.3244 20.3088C31.3174 20.2852 33.3103 20.2663 35.3033 20.2521C36.4148 20.2426 37.3777 20.9279 37.646 21.9864C37.7658 22.4637 37.7945 22.9694 37.7897 23.4656C37.7754 25.1527 36.6016 26.2774 34.8961 26.2869C33.042 26.3011 31.188 26.32 29.334 26.3389C29.2573 26.3294 29.1807 26.3389 29.0944 26.3436V26.3483Z" fill="#9B163A"/>
<path d="M25.7792 24.0654C25.7792 25.8282 25.7552 27.5861 25.7792 29.3489C25.8031 30.8233 25.3049 32.1134 24.4617 33.2854C23.494 34.6276 22.1477 35.4546 20.5428 35.8515C18.6121 36.3288 16.6766 36.343 14.7747 35.7381C12.3937 34.9773 11.0283 33.3138 10.5396 30.9226C10.4582 30.5209 10.4294 30.105 10.4294 29.6938C10.4198 26.0408 10.4198 22.3925 10.4294 18.7395C10.4294 18.4654 10.4917 18.1771 10.5779 17.9125C10.669 17.6337 10.9037 17.4399 11.2007 17.4304C11.9673 17.4115 12.7338 17.3926 13.4955 17.4541C14.1854 17.5061 14.3531 17.766 14.3579 18.4512C14.3675 21.2158 14.3866 23.9851 14.401 26.7497C14.401 27.7185 14.3914 28.692 14.4154 29.6608C14.4393 30.6674 14.7412 31.57 15.5508 32.2458C15.9963 32.6191 16.5233 32.8176 17.0934 32.8743C17.7498 32.9405 18.4109 32.983 19.072 32.983C20.3129 32.983 21.1608 32.3734 21.6447 31.2628C21.9034 30.6721 22.0232 30.0483 22.0184 29.4056C22.004 25.6675 21.9849 21.9341 21.9609 18.196C21.9609 17.6951 22.1477 17.4588 22.7178 17.4352C23.4221 17.4068 24.1263 17.4446 24.8306 17.4635C24.9504 17.4635 25.0701 17.5108 25.1851 17.5486C25.6882 17.7282 25.7696 17.8416 25.7696 18.3709C25.7696 20.2706 25.7696 22.1704 25.7696 24.0654H25.7792Z" fill="#F8F7F7"/>
<path d="M29.0944 26.349C29.1807 26.349 29.2573 26.3349 29.334 26.3349C31.188 26.316 33.0421 26.2971 34.8961 26.2829C36.6016 26.2734 37.7754 25.144 37.7898 23.4616C37.7945 22.9701 37.7658 22.4597 37.646 21.9824C37.3777 20.9238 36.4148 20.2386 35.3033 20.2481C33.3104 20.2622 31.3174 20.2859 29.3244 20.3048C29.1615 20.3048 29.0465 20.2906 29.0513 20.0968C29.0561 19.4872 29.0274 18.8776 29.0801 18.2727C29.1328 17.6725 29.6214 17.2708 30.2394 17.2708C32.0599 17.2708 33.8805 17.2519 35.6962 17.2803C36.9801 17.2992 38.2209 17.5638 39.3372 18.2349C41.0954 19.2935 41.929 20.853 41.8092 22.8709C41.7613 23.6601 41.632 24.4587 41.4547 25.229C41.1577 26.5003 40.348 27.4218 39.227 28.0881C38.0868 28.7639 36.8268 29.09 35.5189 29.2176C34.647 29.3027 33.7703 29.3168 32.8552 29.3641V34.8224C32.8552 35.243 32.5342 35.5643 32.0983 35.5643C31.3078 35.5643 30.5125 35.5643 29.722 35.5643C29.3196 35.5643 29.0801 35.3422 29.0801 34.983V26.557C29.0801 26.5003 29.0896 26.4341 29.0944 26.3538V26.349Z" fill="#F8F7F7"/>
<path d="M100.99 19.893C99.8402 23.4184 98.6952 26.9439 97.5454 30.4693C97.2388 31.4145 96.8843 32.3502 96.6256 33.3095C96.4435 33.9806 96.0315 34.2547 95.3847 34.283C94.8961 34.3019 94.4074 34.3208 93.9188 34.2972C92.8456 34.2499 92.6204 33.938 92.9702 32.922C94.2541 29.2122 95.562 25.512 96.8603 21.8117C97.4208 20.2144 98.0053 18.6312 98.5275 17.0245C98.7671 16.2872 99.1982 15.9706 99.9791 15.9092C103.472 15.6398 103.587 15.7012 104.722 18.9384C106.313 23.4657 107.913 27.993 109.503 32.5203C109.594 32.7755 109.685 33.0307 109.757 33.2953C109.906 33.8435 109.69 34.2216 109.12 34.2499C108.238 34.2877 107.343 34.3161 106.475 34.1979C106.169 34.1554 105.795 33.7065 105.68 33.3709C104.262 29.1981 102.887 25.011 101.503 20.8334C101.397 20.5215 101.287 20.2144 101.182 19.9025C101.115 19.8977 101.052 19.893 100.99 19.893Z" fill="#9B163A"/>
<path d="M79.8626 28.7492C79.8626 29.7086 79.6806 30.545 79.3212 31.2681C78.9619 31.9911 78.4685 32.5913 77.8505 33.0781C77.2324 33.5601 76.509 33.924 75.6802 34.1697C74.8514 34.4154 73.9699 34.5336 73.0261 34.5336C72.3889 34.5336 71.7949 34.4816 71.2487 34.3776C70.7026 34.2737 70.2187 34.1508 69.8019 34.0043C69.3851 33.8578 69.0354 33.7066 68.7527 33.5459C68.4701 33.3852 68.2688 33.2435 68.1443 33.1253C68.0197 33.0024 67.9335 32.8276 67.8808 32.596C67.8281 32.3645 67.8041 32.0337 67.8041 31.6036C67.8041 31.3106 67.8137 31.0696 67.8329 30.8711C67.852 30.6726 67.8808 30.5167 67.9239 30.3938C67.967 30.2709 68.0245 30.1859 68.0964 30.1339C68.1682 30.0819 68.2497 30.0583 68.3455 30.0583C68.4796 30.0583 68.6665 30.1339 68.9108 30.2898C69.1551 30.4458 69.4665 30.6159 69.845 30.805C70.2235 30.994 70.6786 31.1641 71.2056 31.3201C71.7326 31.476 72.3458 31.5516 73.0405 31.5516C73.4956 31.5516 73.9076 31.4996 74.2669 31.391C74.6263 31.2823 74.9329 31.131 75.1868 30.9325C75.4407 30.7341 75.6323 30.4931 75.7665 30.2001C75.9006 29.9071 75.9677 29.5857 75.9677 29.2313C75.9677 28.8201 75.8527 28.4657 75.6275 28.168C75.3976 27.8702 75.1005 27.6103 74.7364 27.3788C74.3723 27.1472 73.9555 26.9345 73.486 26.7313C73.0213 26.5281 72.5375 26.3155 72.044 26.0886C71.5506 25.8618 71.0667 25.6066 70.602 25.323C70.1373 25.0348 69.7205 24.6945 69.3516 24.2976C68.9875 23.9006 68.6904 23.428 68.4605 22.8845C68.2305 22.3411 68.1203 21.6889 68.1203 20.9281C68.1203 20.0538 68.2832 19.2882 68.6138 18.6266C68.9396 17.965 69.3851 17.4168 69.9408 16.982C70.4966 16.5473 71.1529 16.2212 71.9099 16.0038C72.6668 15.7864 73.4669 15.6777 74.3148 15.6777C74.7508 15.6777 75.1916 15.7108 75.6275 15.777C76.0635 15.8431 76.4755 15.9329 76.854 16.0463C77.2324 16.1598 77.5726 16.2874 77.8648 16.4244C78.1619 16.5662 78.3535 16.6843 78.4493 16.7741C78.5451 16.8686 78.6074 16.949 78.6409 17.0151C78.6745 17.0813 78.7032 17.1664 78.7272 17.275C78.7511 17.3837 78.7655 17.5208 78.7751 17.6815C78.7847 17.8469 78.7895 18.0501 78.7895 18.2958C78.7895 18.5699 78.7895 18.7967 78.7703 18.9858C78.7559 19.1748 78.732 19.3308 78.6984 19.4489C78.6649 19.5718 78.617 19.6616 78.5547 19.7183C78.4924 19.775 78.411 19.8033 78.3056 19.8033C78.2002 19.8033 78.0325 19.7372 77.8073 19.6049C77.5774 19.4725 77.2995 19.3308 76.9642 19.1748C76.6288 19.0189 76.2455 18.8771 75.8096 18.7542C75.3736 18.6266 74.8897 18.5652 74.3675 18.5652C73.9603 18.5652 73.601 18.6124 73.2992 18.7117C72.9926 18.8109 72.7387 18.948 72.5375 19.1181C72.3315 19.293 72.1829 19.5009 72.0823 19.7466C71.9817 19.9924 71.9338 20.2476 71.9338 20.5217C71.9338 20.9233 72.044 21.2731 72.2692 21.5708C72.4943 21.8685 72.7914 22.1284 73.1698 22.36C73.5435 22.5915 73.9699 22.8042 74.449 23.0074C74.9233 23.2106 75.4119 23.4233 75.9054 23.6501C76.3988 23.877 76.8827 24.1322 77.3618 24.4157C77.8361 24.704 78.2625 25.0442 78.6314 25.4412C79.0003 25.8382 79.3021 26.3107 79.532 26.8495C79.7476 27.3788 79.8626 28.0167 79.8626 28.7492Z" fill="#9B163A"/>
<path d="M65.998 32.7471C65.998 33.0212 65.9836 33.248 65.9597 33.4323C65.9357 33.6166 65.9022 33.7631 65.8543 33.8765C65.8064 33.9899 65.7489 34.0703 65.677 34.1223C65.6051 34.1742 65.5285 34.1979 65.4423 34.1979H56.1529C55.8367 34.1979 55.5732 34.1081 55.3576 33.9238C55.142 33.7395 55.0366 33.4418 55.0366 33.0306V17.1331C55.0366 16.7219 55.142 16.4195 55.3576 16.2399C55.5732 16.0556 55.8367 15.9658 56.1529 15.9658H65.3848C65.471 15.9658 65.5477 15.9894 65.6147 16.0367C65.6818 16.084 65.7393 16.1643 65.7872 16.2824C65.8351 16.4006 65.8686 16.5518 65.8926 16.7314C65.9165 16.9157 65.9261 17.1473 65.9261 17.4308C65.9261 17.6955 65.9118 17.9176 65.8926 18.1019C65.8686 18.2862 65.8351 18.4327 65.7872 18.5461C65.7393 18.6595 65.6818 18.7399 65.6147 18.7918C65.5477 18.8438 65.471 18.8674 65.3848 18.8674H58.783V23.3191H64.3691C64.4554 23.3191 64.532 23.3428 64.6039 23.3947C64.6757 23.4467 64.7332 23.5271 64.7811 23.6358C64.829 23.7445 64.8626 23.891 64.8865 24.0705C64.9105 24.2548 64.9249 24.4769 64.9249 24.7416C64.9249 25.0062 64.9105 25.2378 64.8865 25.4174C64.8626 25.597 64.829 25.7387 64.7811 25.8474C64.7332 25.9561 64.6757 26.0317 64.6039 26.079C64.532 26.1262 64.4554 26.1499 64.3691 26.1499H58.783V31.2962H65.4423C65.5285 31.2962 65.6051 31.3199 65.677 31.3719C65.7489 31.4238 65.8064 31.5042 65.8543 31.6176C65.9022 31.731 65.9357 31.8775 65.9597 32.0618C65.9836 32.2461 65.998 32.4777 65.998 32.7471Z" fill="#9B163A"/>
<path d="M135 32.7422C135 33.0163 134.986 33.2431 134.962 33.4274C134.938 33.6117 134.904 33.7582 134.856 33.8716C134.808 33.9851 134.751 34.0654 134.679 34.1174C134.607 34.1694 134.53 34.193 134.444 34.193H125.155C124.839 34.193 124.575 34.1032 124.36 33.9189C124.144 33.7346 124.039 33.4369 124.039 33.0257V17.1282C124.039 16.7171 124.144 16.4146 124.36 16.235C124.575 16.0507 124.839 15.9609 125.155 15.9609H134.387C134.473 15.9609 134.55 15.9846 134.617 16.0318C134.684 16.0791 134.741 16.1594 134.789 16.2776C134.837 16.3957 134.871 16.5469 134.895 16.7265C134.918 16.9108 134.928 17.1424 134.928 17.4259C134.928 17.6906 134.914 17.9127 134.895 18.097C134.871 18.2813 134.837 18.4278 134.789 18.5412C134.741 18.6546 134.684 18.735 134.617 18.787C134.55 18.8389 134.473 18.8626 134.387 18.8626H127.785V23.3143H133.371C133.457 23.3143 133.534 23.3379 133.606 23.3899C133.678 23.4418 133.735 23.5222 133.783 23.6309C133.831 23.7396 133.865 23.8861 133.888 24.0656C133.912 24.25 133.927 24.4721 133.927 24.7367C133.927 25.0014 133.912 25.2329 133.888 25.4125C133.865 25.5921 133.831 25.7338 133.783 25.8425C133.735 25.9512 133.678 26.0268 133.606 26.0741C133.534 26.1214 133.457 26.145 133.371 26.145H127.785V31.2914H134.444C134.53 31.2914 134.607 31.315 134.679 31.367C134.751 31.419 134.808 31.4993 134.856 31.6127C134.904 31.7261 134.938 31.8726 134.962 32.0569C134.986 32.2412 135 32.4681 135 32.7422Z" fill="#9B163A"/>
<path d="M94.8817 17.4734C94.8817 17.7475 94.8673 17.9838 94.8434 18.1775C94.8194 18.3713 94.7811 18.5272 94.7332 18.6454C94.6853 18.7635 94.623 18.8533 94.5511 18.91C94.4792 18.9667 94.3978 18.9951 94.3116 18.9951H89.6405V33.8293C89.6405 33.9238 89.607 34.0089 89.5447 34.0845C89.4824 34.1601 89.377 34.2215 89.2333 34.2688C89.0896 34.3161 88.8932 34.3539 88.6488 34.3822C88.4045 34.4106 88.0979 34.4247 87.7338 34.4247C87.3697 34.4247 87.0631 34.4106 86.8187 34.3822C86.5744 34.3539 86.378 34.3161 86.2343 34.2688C86.0905 34.2215 85.9851 34.1601 85.9229 34.0845C85.8606 34.0089 85.827 33.9238 85.827 33.8293V18.9951H81.156C81.0602 18.9951 80.9788 18.9667 80.9117 18.91C80.8446 18.8533 80.7871 18.7635 80.7392 18.6454C80.6913 18.5272 80.653 18.3713 80.629 18.1775C80.6051 17.9838 80.5907 17.7475 80.5907 17.4734C80.5907 17.1993 80.6003 16.9488 80.629 16.7503C80.653 16.5519 80.6913 16.3912 80.7392 16.273C80.7871 16.1549 80.8446 16.0698 80.9117 16.0178C80.9788 15.9659 81.0602 15.9375 81.156 15.9375H94.3068C94.393 15.9375 94.4745 15.9659 94.5463 16.0178C94.6182 16.0698 94.6805 16.1549 94.7284 16.273C94.7763 16.3912 94.8146 16.5519 94.8386 16.7503C94.8673 16.9488 94.8817 17.1898 94.8817 17.4734Z" fill="#9B163A"/>
<path d="M122.113 17.4734C122.113 17.7475 122.098 17.9838 122.074 18.1775C122.05 18.3713 122.012 18.5272 121.964 18.6454C121.916 18.7635 121.854 18.8533 121.782 18.91C121.71 18.9667 121.629 18.9951 121.543 18.9951H116.871V33.8293C116.871 33.9238 116.838 34.0089 116.776 34.0845C116.713 34.1601 116.608 34.2215 116.464 34.2688C116.321 34.3161 116.124 34.3539 115.88 34.3822C115.635 34.4106 115.329 34.4247 114.965 34.4247C114.601 34.4247 114.294 34.4106 114.05 34.3822C113.805 34.3539 113.609 34.3161 113.465 34.2688C113.322 34.2215 113.216 34.1601 113.154 34.0845C113.092 34.0089 113.058 33.9238 113.058 33.8293V18.9951H108.387C108.291 18.9951 108.21 18.9667 108.143 18.91C108.076 18.8533 108.018 18.7635 107.97 18.6454C107.922 18.5272 107.884 18.3713 107.86 18.1775C107.836 17.9838 107.822 17.7475 107.822 17.4734C107.822 17.1993 107.831 16.9488 107.86 16.7503C107.884 16.5519 107.922 16.3912 107.97 16.273C108.018 16.1549 108.076 16.0698 108.143 16.0178C108.21 15.9659 108.291 15.9375 108.387 15.9375H121.538C121.624 15.9375 121.705 15.9659 121.777 16.0178C121.849 16.0698 121.911 16.1549 121.959 16.273C122.007 16.3912 122.046 16.5519 122.07 16.7503C122.103 16.9488 122.113 17.1898 122.113 17.4734Z" fill="#9B163A"/>
</svg>
